<?xml version="1.0" standalone="no"?>
<!DOCTYPE svg PUBLIC "-//W3C//DTD SVG 20010904//EN"
 "http://www.w3.org/TR/2001/REC-SVG-20010904/DTD/svg10.dtd">
<svg version="1.0" xmlns="http://www.w3.org/2000/svg"
 width="200.000000pt" height="200.000000pt" viewBox="0 0 200.000000 200.000000"
 preserveAspectRatio="xMidYMid meet">

<g transform="translate(0.000000,200.000000) scale(0.100000,-0.100000)"
fill="#000000" stroke="none">
<path d="M573 1850 c-29 -4 -65 -11 -79 -14 l-27 -7 23 -24 c13 -14 22 -26 19
-28 -2 -2 -31 -18 -64 -36 -75 -42 -181 -119 -220 -162 l-30 -33 28 17 c15 9
39 25 54 35 24 14 21 8 -18 -43 -54 -72 -103 -151 -124 -202 l-16 -37 26 24
c33 31 39 23 21 -28 -19 -54 -52 -212 -60 -287 l-7 -60 23 35 23 35 7 -135 c7
-148 19 -236 48 -350 19 -75 57 -180 78 -216 11 -19 11 -19 12 0 0 11 11 34
25 52 14 18 25 40 25 48 0 28 14 17 55 -45 43 -65 151 -173 204 -202 l32 -19
-6 39 c-4 21 -9 47 -12 58 -5 19 -5 19 13 3 31 -27 143 -76 229 -99 107 -29
346 -31 480 -5 122 23 206 49 180 54 -11 2 -31 14 -45 27 -14 12 -33 27 -43
32 -15 8 -5 15 60 37 202 71 325 180 380 336 24 72 25 92 1 73 -7 -6 -32 -13
-56 -16 l-43 -5 26 34 c86 112 122 311 96 524 -5 47 -7 51 -14 28 -4 -16 -26
-40 -54 -59 -45 -32 -46 -32 -39 -8 45 165 17 337 -72 439 l-31 35 -1 -26 c0
-15 -7 -40 -15 -55 -8 -16 -15 -38 -15 -49 0 -11 -14 7 -30 42 -36 72 -120
155 -200 195 -66 33 -169 60 -209 56 l-29 -3 27 -56 27 -57 -41 15 c-133 48
-295 66 -365 42 l-32 -12 37 -13 c21 -7 49 -24 62 -37 l25 -24 -74 -7 c-156
-14 -283 -62 -348 -131 l-35 -38 32 6 c30 6 129 -16 146 -33 12 -11 -43 -54
-122 -95 -75 -39 -105 -66 -116 -105 -7 -24 -7 -24 12 -7 26 22 61 22 118 -3
26 -11 55 -20 66 -20 22 0 26 -14 33 -117 5 -77 -10 -143 -44 -193 -9 -14 -20
-37 -24 -52 -3 -15 -16 -36 -27 -47 -14 -13 -19 -26 -14 -40 3 -11 -1 -33 -10
-51 -11 -22 -13 -35 -5 -49 15 -30 60 -61 86 -61 21 0 24 5 24 36 0 35 1 36
31 30 25 -5 30 -3 25 9 -9 25 5 77 20 71 8 -3 15 9 19 37 14 80 33 110 116
177 44 36 83 66 87 68 4 1 13 -7 20 -18 19 -31 5 -130 -20 -139 -18 -6 -18 -8
-4 -20 9 -8 16 -24 16 -37 0 -19 -5 -24 -27 -24 l-26 0 21 -23 c30 -32 29 -57
-4 -57 -24 0 -24 -1 -10 -22 24 -33 4 -62 -37 -54 l-32 6 32 -31 31 -32 49 30
c54 33 48 15 77 251 12 96 21 134 40 167 21 35 24 48 16 74 -12 42 1 76 48
124 28 28 44 37 70 37 79 0 133 -66 141 -173 l6 -71 53 59 c31 36 55 55 61 49
34 -37 40 -170 12 -251 -19 -58 -16 -62 35 -43 15 6 29 9 31 6 2 -2 -8 -28
-22 -57 -34 -66 -118 -155 -184 -194 -28 -16 -51 -33 -51 -37 0 -5 21 -8 48
-8 l47 -1 -30 -25 c-70 -58 -217 -111 -355 -126 -24 -3 -24 -4 10 -25 l35 -23
-73 0 c-95 0 -212 24 -287 60 -67 32 -146 104 -175 159 l-19 36 -7 -33 c-3
-18 -10 -34 -14 -37 -11 -7 -91 123 -127 206 -52 120 -73 217 -73 338 0 140
20 226 76 340 38 76 62 109 134 182 48 49 92 89 97 89 5 0 7 -16 5 -36 l-5
-37 74 64 c41 35 90 76 109 91 l35 27 -70 -1 c-38 0 -94 -4 -122 -8z m150
-711 c-14 -22 -28 -37 -30 -35 -3 2 3 40 13 83 l18 78 12 -43 c12 -41 12 -46
-13 -83z"/>
</g>
</svg>
