<?xml version="1.0" encoding="UTF-8"?>
<svg id="Layer_1" data-name="Layer 1" xmlns="http://www.w3.org/2000/svg" xmlns:xlink="http://www.w3.org/1999/xlink" viewBox="0 0 1021.28 1006.72">
  <defs>
    <style>
      .cls-1 {
        fill: #e6bf6f;
      }

      .cls-1, .cls-2, .cls-3, .cls-4, .cls-5, .cls-6, .cls-7, .cls-8, .cls-9, .cls-10, .cls-11, .cls-12, .cls-13, .cls-14, .cls-15, .cls-16, .cls-17, .cls-18, .cls-19, .cls-20, .cls-21, .cls-22, .cls-23, .cls-24, .cls-25, .cls-26, .cls-27, .cls-28, .cls-29, .cls-30, .cls-31, .cls-32, .cls-33, .cls-34, .cls-35, .cls-36, .cls-37, .cls-38, .cls-39, .cls-40, .cls-41, .cls-42, .cls-43, .cls-44, .cls-45, .cls-46, .cls-47, .cls-48, .cls-49, .cls-50, .cls-51, .cls-52, .cls-53, .cls-54, .cls-55, .cls-56, .cls-57, .cls-58, .cls-59, .cls-60, .cls-61, .cls-62, .cls-63, .cls-64, .cls-65, .cls-66, .cls-67, .cls-68, .cls-69, .cls-70, .cls-71, .cls-72, .cls-73, .cls-74, .cls-75, .cls-76, .cls-77, .cls-78, .cls-79, .cls-80, .cls-81, .cls-82, .cls-83, .cls-84, .cls-85, .cls-86, .cls-87, .cls-88, .cls-89, .cls-90, .cls-91, .cls-92, .cls-93, .cls-94, .cls-95, .cls-96, .cls-97, .cls-98, .cls-99, .cls-100, .cls-101, .cls-102, .cls-103, .cls-104, .cls-105, .cls-106, .cls-107, .cls-108, .cls-109, .cls-110, .cls-111, .cls-112, .cls-113, .cls-114, .cls-115, .cls-116, .cls-117, .cls-118, .cls-119, .cls-120, .cls-121, .cls-122, .cls-123, .cls-124, .cls-125, .cls-126, .cls-127, .cls-128, .cls-129, .cls-130, .cls-131, .cls-132, .cls-133, .cls-134, .cls-135, .cls-136, .cls-137, .cls-138, .cls-139, .cls-140, .cls-141, .cls-142, .cls-143, .cls-144, .cls-145, .cls-146, .cls-147, .cls-148, .cls-149, .cls-150, .cls-151, .cls-152, .cls-153, .cls-154, .cls-155, .cls-156, .cls-157, .cls-158, .cls-159, .cls-160, .cls-161, .cls-162, .cls-163, .cls-164, .cls-165, .cls-166, .cls-167, .cls-168, .cls-169, .cls-170, .cls-171, .cls-172, .cls-173, .cls-174, .cls-175, .cls-176, .cls-177, .cls-178, .cls-179 {
        stroke-width: 0px;
      }

      .cls-2 {
        fill: #072b1a;
      }

      .cls-3 {
        fill: #b4e2c5;
      }

      .cls-4 {
        fill: #8bc49e;
      }

      .cls-5 {
        fill: #1a3d29;
      }

      .cls-6 {
        fill: #052c1a;
      }

      .cls-7 {
        fill: #96a697;
      }

      .cls-8 {
        fill: #6e918b;
      }

      .cls-9 {
        fill: #465829;
      }

      .cls-10 {
        fill: #f5f8f7;
      }

      .cls-11 {
        fill: #c8a758;
      }

      .cls-12 {
        fill: #6f8068;
      }

      .cls-13 {
        fill: #dacaa6;
      }

      .cls-14 {
        fill: #627a5b;
      }

      .cls-15 {
        fill: #042a1a;
      }

      .cls-16 {
        fill: #fde5ab;
      }

      .cls-17 {
        fill: #07311e;
      }

      .cls-18 {
        fill: #f4dc9a;
      }

      .cls-19 {
        fill: #c5a24e;
      }

      .cls-20 {
        fill: #dbbb69;
      }

      .cls-21 {
        fill: #c9bd86;
      }

      .cls-22 {
        fill: #61654e;
      }

      .cls-23 {
        fill: #aab29f;
      }

      .cls-24 {
        fill: #695f33;
      }

      .cls-25 {
        fill: #9a9f49;
      }

      .cls-26 {
        fill: #f7f9f5;
      }

      .cls-27 {
        fill: #fbfbfa;
      }

      .cls-28 {
        fill: #4c6030;
      }

      .cls-29 {
        fill: #21441f;
      }

      .cls-30 {
        fill: #cfbe95;
      }

      .cls-31 {
        fill: #d2b46f;
      }

      .cls-32 {
        fill: #d5d2b1;
      }

      .cls-33 {
        fill: #12230e;
      }

      .cls-34 {
        fill: #f5f5db;
      }

      .cls-35 {
        fill: #c4e2d4;
      }

      .cls-36 {
        fill: #5c6d42;
      }

      .cls-37 {
        fill: #efd08c;
      }

      .cls-38 {
        fill: #465842;
      }

      .cls-39 {
        fill: #caa14f;
      }

      .cls-40 {
        fill: #14411f;
      }

      .cls-41 {
        fill: #808661;
      }

      .cls-42 {
        fill: #f7fafa;
      }

      .cls-43 {
        fill: #fad593;
      }

      .cls-44 {
        fill: #f6cf86;
      }

      .cls-45 {
        fill: #e0c179;
      }

      .cls-46 {
        fill: #f7faf1;
      }

      .cls-47 {
        fill: #054026;
      }

      .cls-48 {
        fill: #7c8261;
      }

      .cls-49 {
        fill: #fae9c0;
      }

      .cls-50 {
        fill: #f2df9f;
      }

      .cls-51 {
        fill: #9eb6aa;
      }

      .cls-52 {
        fill: #fde6b1;
      }

      .cls-53 {
        fill: #354f3b;
      }

      .cls-54 {
        fill: #e2edd9;
      }

      .cls-55 {
        fill: #a9d8b0;
      }

      .cls-56 {
        fill: #95ab8e;
      }

      .cls-57 {
        fill: #6aa883;
      }

      .cls-58 {
        fill: #819177;
      }

      .cls-59 {
        fill: none;
      }

      .cls-60 {
        fill: #c29b45;
      }

      .cls-61 {
        fill: #e2b969;
      }

      .cls-62 {
        fill: #8e9e8d;
      }

      .cls-63 {
        fill: #295033;
      }

      .cls-64 {
        fill: #ab9d73;
      }

      .cls-65 {
        fill: #d5c49c;
      }

      .cls-66 {
        fill: #f3d392;
      }

      .cls-67 {
        fill: #e6c57d;
      }

      .cls-68 {
        fill: #042111;
      }

      .cls-69 {
        fill: #0a2516;
      }

      .cls-70 {
        fill: #c9a752;
      }

      .cls-71 {
        fill: #d8c59d;
      }

      .cls-72 {
        fill: #b5d9bb;
      }

      .cls-73 {
        fill: #6b9081;
      }

      .cls-74 {
        fill: #d4c39b;
      }

      .cls-75 {
        fill: #c3ac6f;
      }

      .cls-76 {
        fill: #c5a359;
      }

      .cls-77 {
        fill: #a7c5b2;
      }

      .cls-78 {
        fill: #072817;
      }

      .cls-79 {
        fill: #0f3a0f;
      }

      .cls-80 {
        fill: #f9f0cb;
      }

      .cls-81 {
        fill: #d9c9a5;
      }

      .cls-82 {
        fill: #e0d0af;
      }

      .cls-83 {
        fill: #3da886;
      }

      .cls-84 {
        fill: #f0ecd1;
      }

      .cls-85 {
        fill: #052d18;
      }

      .cls-86 {
        fill: #b3ad7d;
      }

      .cls-87 {
        fill: #042519;
      }

      .cls-88 {
        fill: #7b8166;
      }

      .cls-89 {
        fill: #d6d0b5;
      }

      .cls-90 {
        fill: #b0d2be;
      }

      .cls-91 {
        fill: #fff;
      }

      .cls-92 {
        fill: #818a5f;
      }

      .cls-93 {
        fill: #c09e52;
      }

      .cls-94 {
        fill: #bf9a45;
      }

      .cls-95 {
        fill: #224025;
      }

      .cls-96 {
        fill: #d8bb73;
      }

      .cls-97 {
        fill: #d0c09b;
      }

      .cls-98 {
        fill: #082e1e;
      }

      .cls-99 {
        fill: #f4f6da;
      }

      .cls-100 {
        fill: #e3c88c;
      }

      .cls-101 {
        fill: #f9f0cd;
      }

      .cls-102 {
        fill: #a1a47e;
      }

      .cls-103 {
        fill: #11351b;
      }

      .cls-104 {
        fill: #dcf2df;
      }

      .cls-105 {
        fill: #789587;
      }

      .cls-106 {
        fill: #f7efca;
      }

      .cls-107 {
        fill: #edc678;
      }

      .cls-108 {
        fill: #b59362;
      }

      .cls-109 {
        fill: #baa160;
      }

      .cls-110 {
        fill: #faf3d4;
      }

      .cls-111 {
        fill: #a5c8c4;
      }

      .cls-112 {
        fill: #8e8d5a;
      }

      .cls-113 {
        fill: #47583c;
      }

      .cls-114 {
        fill: #04291a;
      }

      .cls-115 {
        fill: #fbfcfb;
      }

      .cls-116 {
        fill: #c9aa5a;
      }

      .cls-117 {
        fill: #5ac4a5;
      }

      .cls-180 {
        clip-path: url(#clippath);
      }

      .cls-118 {
        fill: #7dd2ae;
      }

      .cls-119 {
        fill: #87733c;
      }

      .cls-120 {
        fill: #ddcba5;
      }

      .cls-121 {
        fill: #6e785e;
      }

      .cls-122 {
        fill: #6d725d;
      }

      .cls-123 {
        fill: #dbcba5;
      }

      .cls-124 {
        fill: #d1bd8e;
      }

      .cls-125 {
        fill: #0f2213;
      }

      .cls-126 {
        fill: #f4e6c1;
      }

      .cls-127 {
        fill: #f5f9ee;
      }

      .cls-128 {
        fill: #faeec1;
      }

      .cls-129 {
        fill: #5a684e;
      }

      .cls-130 {
        fill: #04301d;
      }

      .cls-131 {
        fill: #57836f;
      }

      .cls-132 {
        fill: #687444;
      }

      .cls-133 {
        fill: #082e20;
      }

      .cls-134 {
        fill: #083321;
      }

      .cls-135 {
        fill: #f7faf6;
      }

      .cls-136 {
        fill: #6b837b;
      }

      .cls-137 {
        fill: #faeac6;
      }

      .cls-138 {
        fill: #fbfbf9;
      }

      .cls-139 {
        fill: #dac9a3;
      }

      .cls-140 {
        fill: #f9f9f9;
      }

      .cls-141 {
        fill: #1f2e13;
      }

      .cls-142 {
        fill: #97cdad;
      }

      .cls-143 {
        fill: #215232;
      }

      .cls-144 {
        fill: #f9f5da;
      }

      .cls-145 {
        fill: #e9d599;
      }

      .cls-146 {
        fill: #103117;
      }

      .cls-147 {
        fill: #0b3f23;
      }

      .cls-148 {
        fill: #173718;
      }

      .cls-149 {
        fill: #305d4f;
      }

      .cls-150 {
        fill: #fbe9b3;
      }

      .cls-151 {
        fill: #9dae9a;
      }

      .cls-152 {
        fill: #98c299;
      }

      .cls-153 {
        fill: #f9d699;
      }

      .cls-154 {
        fill: #5b6952;
      }

      .cls-155 {
        fill: #3f4922;
      }

      .cls-156 {
        fill: #719188;
      }

      .cls-157 {
        fill: #b0dec2;
      }

      .cls-158 {
        fill: #0d361e;
      }

      .cls-159 {
        fill: #d8cbac;
      }

      .cls-160 {
        fill: #224021;
      }

      .cls-161 {
        fill: #36451c;
      }

      .cls-162 {
        fill: #112915;
      }

      .cls-163 {
        fill: #bbddc1;
      }

      .cls-164 {
        fill: #062d1b;
      }

      .cls-165 {
        fill: #b3cfcf;
      }

      .cls-166 {
        fill: #fbdc9f;
      }

      .cls-167 {
        fill: #72795e;
      }

      .cls-168 {
        fill: #d9d2b0;
      }

      .cls-169 {
        fill: #082114;
      }

      .cls-170 {
        fill: #dab25f;
      }

      .cls-171 {
        fill: #f7eeca;
      }

      .cls-172 {
        fill: #eef1d3;
      }

      .cls-173 {
        fill: #fcf2cd;
      }

      .cls-174 {
        fill: #c4a048;
      }

      .cls-175 {
        fill: #ccab59;
      }

      .cls-176 {
        fill: #f9fafb;
      }

      .cls-177 {
        fill: #dcae6b;
      }

      .cls-178 {
        fill: #a29f77;
      }

      .cls-179 {
        fill: #032821;
      }
    </style>
    <clipPath id="clippath">
      <rect class="cls-59" y="6.72" width="1000" height="1000" rx="250" ry="250"/>
    </clipPath>
  </defs>
  <g class="cls-180">
    <path class="cls-91" d="m0,6.72h1000v1000H0V6.72Z"/>
    <path class="cls-30" d="m519.85,999.91c-164.51-4.41-341.56,8.52-500-4.38C24.41,665.84,11.36,323.64,24.32,0c330.36.1,660.7.1,991.04,0,12.95,323.71-.08,665.77,4.49,995.51-158.53,12.88-335.44-.03-500.01,4.39Z"/>
    <path class="cls-17" d="m621.01,292.01c.84,1.73,1.14,3.82,3.14,4.79,6.25,2.75,7.66,8.96,9.73,14.4,3.37,15.89-23.69,21.55-34.93,26.43-8.86,1.6,5.85,14.93,7.29,19.33,10.05,14.56-6.83,31.87-21.7,31.63-5.91-3.89-7.22,2.42-11.7.16-3.53-2.33-3.66.07-3.78,2.6.92,8.48,5.73,16.14,4.89,25.05-1.67,9.34,5.89,31.94-11.18,26.45-.37-.35-.69-1.05-.39-1.24,8.41-5.38,7.74-14.57,6.94-22.8-4.05,5.92-4.92,13.31-9.94,18.56-2.25,2.47-1.09,3.48,1.26,4.38,4.37,4.86,4.53,8.65,2.15,14.59,2.52,2.12,1.5,5.87,3.8,8.06-4.73,5.08-14.26-1.43-16.99,6.76-3.37,7.95.02,17.18-1.5,25.55-2.13,10.3-15.68,15.78-25.32,15.44-6.43.89-14.79-1.75-20.07,2.34-5.03,7.3-10.88,14.36-10.7,23.87.36,31.88-18.93,51.32-3.72,84.17,4.14-19.9,10.3-40.12,24.2-55.55,24.86-27,71.37-34.91,97.71-6.11,78.11,90.6-87.03,209.08-144.93,69.12-10.69,20.11-25.71,37.43-45.93,48.06-6.67,2.69-2.49,13.78-3.86,19.66,1.31,17.02-23.83,10.52-3.82,26.86,5.03,4.67,9.87,9.47,12.04,16.26-.06,1.23-1.11,2.74.27,3.63,11.09,9.78,22.33,19.94,36.68,24.42,2.96,1.7,6.23,2.77,8.19,5.84,1.02,1.6,2.72,2.25,4.44,2.82,2.13.71,3.95,1.68,3.52,4.45-.36,2.3,1.33,2.19,2.79,2.28,5.76-.36,11.1,9.54,2.63,10.04-4.8.31-9.74,4.12-14.41,2.79-.77-1.05-.67-2.47-2.51-3.05-18.46-6.76-34.95-18.38-49.27-31.57-14.94-10.83-28.71-22.94-39.56-37.83-7.89-10.47-24.17-7.46-27.39-15.17-6.92-10.59-16.99-7.33-27.22-10.62-5.18-2.85-15.12,1.48-18.35-3.34,1.84-2.85,4.8-1.43,7.27-1.9-2.57-.27-5.86-3.19-8.21-1.24-1.92,5.24-4.64,3.59-5.91-.83-1.36-1.9,1.17-5.04-2.41-6.1-3.06-.91-2.42-4.69-4.4-6.63-4.18-5.07-1.22-15.37,6.76-13.49,7.84-1.64,9.83,9.61,18.43,7.61.61-.1,1.4.2,1.74.74,2.66,4.25,7.14,3.96,11.23,4.48,3.13.57,32.93,2.39,30.19-1.72.58-2.32,2.63-2.09,4.29-2.46,65.87-15.21,98.07-58.76,102.92-124.75.73-3.54-2.83-3.6-5.38-3.56-14.47.27-28.94-.65-43.41-.4-22.66.22-45.33-.54-67.96.34-29.82-.47-60.15,1.6-89.74-.75-2.02-1.29-1.21-2.29.42-3.03,9.74-1.81,20.02-.08,29.94-.78,12.11-.28-3.53-10.76.13-17.42-13.82-14.86-25.15-31.39-33.26-49.95-2.5-5.14-4.77-10.63-6.11-16.37-1.62-6.97-3.31-7.89-10.65-7.45-12.13.41-24.2,3.21-36.32,2.68-8.98.83-18.02-2.66-26.82-.11-12.08.94-39.86,6.59-35.4-13.82,2.53-8.79,5.1-10.84,14.13-10.89,12.68-.08,25.36-.13,38.04,0,14.47.15,28.88-1.68,43.36-1.02,3.49.16,5.19-1.23,4.95-4.82-.36-7.51,2.75-11.92-7.51-10.71-10.51.08-21.09.37-31.58-1-6.7-3.75-14.38-.35-21.58-1.52-5.83.66-11.67.12-17.51.32-7.15.56-17.18,3-21.58-3.91-2.71-3.96-2.92-13.55.03-17.25,7.85-9.3,21.51-2.5,31.94-3.16,5.87-.46,11.54,1.68,17.32,1.43,13.06-2.68,26.15.71,39.21-.28,2.17.52,4.44.17,6.62.68,1.76.82,3.43,1.97,5.54,1.63,2.51-.55,5.61,1.4,7.49-1.78,6.02-16.16,27.41-26.98,42.02-14.73.42,2.26,2.01,4.24,3.87,4.49,6.27.57,6.63,7.06,11.35,9.42,4.21,2.69.94,7.11.49,10.82-1.05,5.64,1.63,9.73,7.33,9.08,12.99-.29,25.8-.08,38.76-.98,4.69.47,7.99-5.97,3.59-8.86-4.48-3.21.84-4.52,3.58-5.96,13.55-1.14,15.36,20.3,2.05,21.41-1.79-1.18-3.58-2.33-4.61.85-6.29,3.47-13.07,2.46-19.43,1.09-7.31-1.57-14.54-.82-21.8-.98-3.67-.68-3.78,5.07-.45,5.74,13.42.79,26.97,0,40.43.32,16.06-1.68,16.2,24.02.82,24.29-13.11,1.6-26.27.36-39.52.79,1.16,7.29,5.12,13.87,6.13,21.27-.12,7.46-6.01,3.86-7.2-1.05-4.25-12.46-16.02-2.18-23-9.65-1.45-3.8.19-7.9-1.13-11.71-.8-2.25.19-4.9-1.58-6.93-1.72-2.74-1.34-6.83-5.24-8.19-14.09-14.98-27.94-.58-17.04,14.82,11.61,29.06,21.22,54.42,47.14,74.53,4.13,5.09,10.93,2.64,16.37,4.94,2.76,1.05,4.62-.16,5.8-2.83,2.65-5.97,2.61-6.17-4.2-11.27-5.07-11.26,13.92-4.5,14.92-15.71,2.05-1.63,4.81-1.87,6.89-3.48,2.46.44,3.35-1.23,4.37-3.01,1.32-2.31,2.94-3.29,5.44-1.02,2.27,2.05,10.26.65,11.94-1.74,2.06-3.85-8.25-6.41-.07-11,.55-.29.35.27.37-.24.36-7.54,8.51-6.87,11.85-11.27.76-1,2.57-1.67,2.56-2.81-.86-8.12,24.95-31.96,26.64-15.21-.33,1.1-.77,2.31-1.71,2.86-8.43,4.94-12.84,13.74-19.56,20.3-2.53,3.47-3.25,7.98-6.39,11.1-3.77,2.31-6.06,4.36-3.18,8.95,3.11,5.49,1.15,8.42-5.15,8.69-11.21,1.3-16.14,13.8-19.66,22.93-.8,2.16.02,3.37,2.49,3.4,7.47-1.52,22.52,5.07,25.2-4.42,1.3-5.3,5.74-8.95,7.91-13.71,7.61-5.42,15.23,7.19,11.4,13.02-.95,1.91-1.93,3.82.17,5.65,9.01,3.31,18.57.17,27.86,1.35,9.41.24,18.84-.31,28.25.28,2.53.16,4-1.08,5.1-3,34.5-54.73,91.71-100.6,93.82-170.16.11-9.36-.92-11.01-9.44-14.64-9.03-3.65-18.66-6.55-25.88-13.45-2.33-2.02-4.3-.23-5.88.97-4.46,3.72,3.55,9.69-5.8,12.59-2.39-1.31-4.4-1.41-6.22,1.18-2.09,2.96-5.06,1.68-7.48.64-2.8-1.2-2.9-4.12-2.8-6.71-.28-6.3,10.34-1.99,8.01-8.89-.61-2.2.95-3.54,2.28-5.01,7.96-8-15.16-11.49,2.34-28.6,10.31-8.3,6.04-19.42,4.28-30.05-.16-4.19,4.96-4.34,3.79-.84,2.65-3.4,6.91-5.48,11.45-7.13,9.84.72,18.89-2.51,27.95-5.63,13.8-4.28,28.2-6.28,41.46-12.26,7.02.79,13.16,10.62,4.04,13.5,5.71,8.19,5.68-7.52,11.61-4.21,3.21,1.93,1.15,5.24-.29,7.74-4.12,6.71-.16,10.81-6.6,18.63-3.6,0-5.11-6.49-10.78-4.51-10.31,3.11-20.78,5.99-31.62,6.11-5.31.05-13.16-2.59-14.86,4.53-3.17,7.02-13.36,6.88-19.11,11.34-10.94,13.94,8.01,16.99,17.61,21.34,15.71,7.63,33.84,10.5,50.53,4.08,8.63-3.82-7.82-6.96-9-10.77-1.86-7.49.37-18.91,10.01-12.42.85.63,1.51,1.73,3.33,1.37-3.77-4.67-.21-8.76.79-13.07.22-.93.9-1.74,2.15-1.32.88.84,1.23,1.95,1.19,3.07-.86,7.18,7.31,9.39,8.27,15.64Z"/>
    <path class="cls-2" d="m470.67,796.72c.11-.63.22-1.26.33-1.88,3.94,1.82,6.71-2.16,10.35-2.11,1.37.02,4.09,1.11,3.97-1.08-.12-2.24-.6-5.42-4.07-5.82-3.13-.24-9.46,1.28-5.79-4.18.97-1.46.15-2.2-1.14-2.38-3.58-.5-5.7-2.43-8.04-5.31-4.44-5.39-12.51-5.34-18.37-8.47-6.33-4.02-11.34-9.83-18.14-13.27-3.71-2.66-4.01-6.27-9.49-7.16.97-1.38,1.94-2.75,2.9-4.12,3.69-.55,4.4,3.36,6.9,4.59,11.46,10.35,24.98,17.38,38.77,23.94,22.25,9.93,47.93,13.7,71.94,13.4,85.8-8.53,154.95-88.62,153.75-174.33-.2-74.46-50.52-142.4-127.98-144.68-1.83-.56-5.58.98-6.22-1.07-.46-2.67,2.67-1.32,4.17-2.52-9.99-2.2,3.36-9.41-3.4-15.29-.53-.64-.4-1.84-.57-2.79.54-.41,1.09-.45,1.66-.05,3.73-.15,8.18,1.99,10.09-3.66.34-6.79-.3-13.5,0-20.32.15-7.46-.77-14.6-4.41-21.34-1.38-2.55-.54-5.77-.36-8.67-.09-3.49,3.43-5.27,5-1.54,3.76,5.21,4.41-5.47,12.44.8-5.19,3.6-7.58,8.94-4.33,15.09,1.31,2.48,2.18,5.15,2.25,7.91.19,6.79,3.48,13.2,2.39,20.14,5.35-7.9,16.48-8.54,25.28-9.47,31.21.42,12.07,41.41,24.63,33.82,15.01-1.33,31.18-1.21,43.71,8.59,6.89,6.07,5.77,17.59,5.14,25.81-3.09,29.73,28.86,41.75,43.74,62.52,4.87,6.27,11.18,15.62,6.29,23.44-3.76,6.07-7.38,12.35-13.04,16.91-3.07,2.47-3.93,5.39-3.3,9.04,1.03,11.45-.98,19.36,8.44,28.28,21.32,24.79,8.64,37.66-17.84,47.49-3.71,1.17-8.02,7.49-7.79,11.34.74,6.5,17.81-6.26,20.62-7.84,24.72-16.14,39.01-41.68,48.38-68.93.96-2.71,1.07-4.94-.9-7.21-6.11-7.06-9.31-15.54-11.68-24.41-4.41-32.68,21.94-63.83,52.94-71.49,4.49-.62,8.81-5.49,13.28-2.86,7.99-2.42,16.06-4.53,24.34-5.77,1.71-1.61,4.32-.13,6.02-1.76,4.4-.31,8.42,1.25,12.42,2.9,1.33,1.83-.19,2.62-1.45,2.54-9.3-.16-13.95,7.2-20.07,12.19-2.63,3.29,2.64,4.64-5.81,8.7-23.6,4.4-47.64,16.63-58.23,39.39-4.87,11.56,4.55,22.55,11.81,30.54,15.93-5.41,12.21,14.65,17.4,7.86,1.03-1.66,2.89-2.17,4.11-.72,2.3,3.35,12.12-1.01,17.76.72,11.5,2.77-4.78,13.81-10.73,11.01-1.22-.3-2.51-.74-3.8-.11,5.83,6.77,11.85-1.73,18.39-1.09,5.8-.13,10.82-1.85,15.14-5.71,1.72-1.82,5.86-2.4,4,1.7-9.69,8.82-22.81,14.56-35.91,15.87-2.31.09-1.56,2.03-1.59,3.34.23,18.68-2.12,37.27-6.54,55.18.77,7.15-3.64,13.04-4.78,19.73-.36,2.11-1.9,3.19-3.81,3.84-1.53,5.57-5.7,9.95-6.96,15.64-2.68,8.59-9.95,14.14-14.29,21.63-18.14,22.69-41.17,43.61-69.56,51.48,13.2.93,27.3-.36,40.84.18,2.72-.61,9.52,2.3,4.06,3.94-7.08,1.73-14.28,3.12-21.51,3.79-3.62.33-6.97-2.9-11.16-2.03-9.95,1.99-26.28-.27-17.62-14.15-7.22-3.23-12.58,2.57-19.58,2.29-6.12.05,1.75,6.33-1.66,8.88-1.64,1.74-3.92,1.99-5.88,1.12-3.95-1.75-8.76-1-12.15-4.49-1.08-1.11-3.1-.7-4.72-.72-3.72-.74-19.07,2.53-16.77-4.2,46.1-4.19,93.28-26.75,120.26-65.62,19.71-26.52,32.69-68.61,28.37-101.35-3.15.71-3.25,3.73-4.25,5.85-17.94,42.55-49.8,86.1-98.68,92.83-7.47-1.17-12.14,2.62-15.46,8.77-1.32,2.74-2.84,5.33-5.22,7.3-7.23,7.64-12.53,17.07-21.45,23.02-7.63,5.9-14.73,12.55-23.67,16.61-2.78,1.1-4.36,4.26-7.4,4.75-2.46.11-5.3.39-6.34-2.35-1.17-3.12-.64-6.46,1.11-9.34,4.6-5.73,12.66,8.97,15.01-5.19.72-4.25,3.6-1.86,5.8-2.36-8.08-1.97-14.85,0-20.75,5.37-3.32,3.43-9.13,3.21-10.27,8.67-.75,2.89-3.67,3.54-6.39,3.28-3.53-.34-5.62.54-5.67,4.56-.03,2.96-2.31,3.53-4.78,3.7-3.5-.08-3.6,4.33-.08,4.56,8.47,2.16,17.39-.31,26.05.86,3.18.2,14.78-1.48,13.93,3.52-2,3.85-9.07,2.76-12.72,5.14-8.66,3.54,6.01,8.12,9.49,8.32,23.69,3.99,47.11-4.88,70.8-.17,1.6.24,3.29,1.15,4.79.73,10.5-2.96,21.46.42,31.95-2.46,1.89-.52,4.03-.9,5.78-.08,5.31,3.58,19.36,3.15,21.9,7.88-10.67,1.86-22.37,3.3-33.42.93-62.04-.8-124.18,0-186.25-.28-9.29-5.63,26.22-9.08,29.14-9.06,2.38.05,5.19.38,6.45-2.34,2.86-4.63-6.62-8.18-1.75-12.15,4.87-2.99,3.53-9.11,8.35-11.99-9.47.79-15.06,9.17-24.54,9.37,1.54,2.55,3.2,2.59,4.38,3.41,10.54,8.31-14.47,11.51-19.8,10.17-12.91-1.31-25.9-2.12-38.87-.3-5.25.48-10.84-.96-15.39,2.6.88,1.33,2,1.27,2.83,1.09,5.13-1.4,49.71-.41,47.63,5.56-.39,2.56-2.66,2.76-4.58,2.55-9.75-1.06-19.48.36-29.22.09-6.53.5-13.07,1.83-19.52-.93-17.24-4.06-35.3,2.73-52.52-3.34-17.64-.55-35.03-3.7-52.77-4.08-5.96-1.23-21.41,3.96-22.92-3.43-.32-3.53,2.94-3.79,5.46-4.19,7.12-1.11,14.27.03,21.38.27,14.31.22,28.43-2.58,42.72-1.5,5.46.38,10.35-2.83,15.91-.03,2.46.97,4.48-1.34,6.48-2.7,8.6-4.03,12.36,4.8,19.07,1.31,1.7-.96,3.72.95,5.47-.38Z"/>
    <path class="cls-6" d="m616.08,255.78c-2.11-3.09-.22-5.65,1.39-7.97,1.43-1.85,3.62-6.15.72-7.13-1.17,2.07-3.98,2.86-3.69,6.18.33,3.68-3.26,1.41-4.6,1.64-2.36.4-4.67-2.07-4.86-4.41-.2-2.43,2.46-2.09,4.13-1.82,2.03.32,2.51-.84,2.01-2.17-.98-2.63-.67-6.44-5.14-6.41-1.18,0-1.41-1.15-1.57-2.13.22-2.6,4.59-3.57,3.24-6.14-23.65-9.58-51.73.7-73.7,11.82-1.72,2.38-3.7,4.2-6.91,4.45-4.87.15-6.43,7.98-11.81,5.27-7.34-4.96-9.27-13.2-4.65-20.68,3.61-4.77,9.02-7.13,13.81-10.34,6.89-4.61,11.69-11.48,17.82-16.93,16.85-16.15,38.21-36.33,33.23-61.93-.46-1.08-.95-2.17-2.33-2.15-2.01.09-2.42,2.55-2.77,4.11-4.59,25.07-26.18,44.64-48.31,54.89-37.31,16.98-12.38,16.19-58.06,14.69-26.55,1.75-43.69,23.53-56.06,44.65-5.83,8.21-14.99,12.28-24.86,10.26-4.51-2.81-10.18-.48-15.17-2.02-37.88-4.8-43.94,51.38-14.19,67.02,16.71,10.11,36.46,5,54.93,6.76,23.63-1.51,47.61,1.8,70.89-2.86,13.22-4.43,27.46-12.11,34.03-24.78.37-.72,1.27-2.44,1.57-.89,3.61,11.25-5.77,8.95-3.27,14.39,3.57,8.97-9.18,2.65-8.34,7.97.53,1.96-1.66,5.84,3.35,6.08,2.55.13,4.08.48,5.63-2.03,2.23-3.63,4.41-2.41,6.08.77-.94,5.47-7.99,3.54-7.14,12.64.26,5.76.04,23.21-9.16,17.02-3.96-2.94-8.49-5.34-10.61-10.2-1.61-.95-2.61.53-3.86.98-4.02.73-5.83,2.86-6.2,7.2-2.22,9.98-9.27,18.6-14.52,27.3-5.22,6.89,16.77,2.19,23.48,23.09-.04,4.33-3.35,7.02-5.63,9.94-12.29,14.53-23.64,29.89-36.5,43.95-7.49,8.62-11.37,20.91-21.96,26.5-3.04-1.88-1.27-4.13-.01-5.73,5.95-6.12-1-12.97-.68-20.69,1.17-3.79,3.81-6.73,5.87-10,6.8-7.72-9.96-7.71-13.57-14.32,1.19-6.38-7.81-4.27-10.6-1.74-4.55,2.3-6.41,7.23-10.38,10.02-1.68,1.18-3.25,2.34-2.2,4.73.52,5.8-8.2,6.84-10.38,11.69-4.3.13-6.07-.65-3.23,4.45.3,2.56-5.24.7-5.57,3.47-.46,1.62.9,2.33,1.81,3.15,4.06,3.7,3.83,5.67-1.28,7.48-3.03.44-9.88,4.1-11.8.96-.32-.84.94-2.66-1.29-2.31-3.69,1.64-.81,8.49-6.73,4.67-.86-8.32,23.42-33.94,29.65-41.89,16.82-18.57,34.29-36.44,51.76-54.38,7.4-7.95,13.02-17.02,17.87-26.63,2.23-4.41,1.58-5.43-3.3-5.42-9.92.02-20.07-1.36-29.72.35-15.45,2.74-30.82.52-46.19,1.38-4.15.89-7.39-2.56-11.5-1.92-36.32-5.2-62.8-48.98-49.99-83.73,4.3-19.8,22.08-38.4,42.82-40.22,10.1-.83,19.6,1.02,29.15,4,2.16.37,3.74.42,4.98-1.64,4.08-6.79,8.27-13.51,12.31-20.33,4.36-5.51,9.3-10.45,14.38-15.24,4.44-3.71,10.24-5.71,14.91-9.29,6-2.57,13.58-2.65,15.58-10.3,1.58-4.77,7.32-7.26,11.72-9.5,14.75-8.05,24.73-23.22,26.91-39.81,2.16-14.84,9.37-25.02,25.41-24.54,24.53,6.84,23.75,36.19,15.44,55.59,31.92-25.3,13.72-43.76,37.08-53.85,11.98-6.07,26.42,4.74,29.53,15.86,2.91,11.05,3.6,24.37-2.39,34.34-5.16,12.29-9.53,25.02-19.98,34.26-1.17,1.03-2.38,2.93-1.75,4.6.83,2.2,2.66-.09,4.08.33.85.25,1.9-.21,2.86-.35,2.22-1.5,5.08-.06,7.29-1.59.34,0,.68,0,1.03,0,14.28,4.03,29.76,5.01,43.36,11.84,12.56.9,8.25,16.38,3.32,23.11-2.07,7.86-7.87,13.58-12.47,19.98-1,1.49-2.63,2.41-4.55,2.53Z"/>
    <path class="cls-134" d="m838.8,523.24c2.02-2.28,7.29-3.91.3-8.32,11.96.69,7.42-12.47,25.71-12.76.79-.1,1.16-.36,1.26-1.09,2.29,10.92-5.26,20.65-3.94,31.57-.98,12.15-.03,24.41,1.17,36.51,1.58,2.09.15,4.92,1.7,7.02.82,11.68.92,25.04-10.53,31.78,2.21-7.73-8.14,7.22-19.29,5.54-2.83-.03-6.18.23-8.66,3.28-2.1,2.59-10.94-.11-12.36-3.26-2.07-4.12,4.56-2.28,6.6-1.94,3.93,3.16,19.75-6.68,11.26-8.12-4.75.55-9.62-1.08-14.29.91-1.74.74-3.25,1.09-4.36-1.28-1.18-2.53-2.32-1.7-2.89.54-.74,4.44-5.46,1.47-5.82-1.64-3.29-8.16-3.31-8.19-11.4-5.13-5.3,1.64,1.5-9.8.78-12.56.25-1.72.33-3.63,2.2-4.62,3.02,1.55,1.69,4.46,2.1,6.82.21,1.2-.28,2.84,1.51,3.14,4.1-.54,4.29-6.14,6.45-9.53-3.96,2.56-6.46-2.25-9.97-1.22-1.4-3.82,1.97-10.86,4.32-13.8,1.79-1.05,2.64-2.56,2.22-4.67,3.05-8.65,9.31-19.65,19.07-21.89,7.05.09,7.56,1.13,7.4,7.96-.25,10.49-4.41,19.92-7.39,29.64-2.1,6.86-3.08,13.94-5.07,20.79-.77,2.65.74,3.36,2.85,2.89,26.14-5.43,24.53-15.55,21.86-38.57-.88-10.71-.56-21.39-.43-32.09.61-2.52-1.18-4.09-2.36-5.9Z"/>
    <path class="cls-30" d="m616.08,255.78c3.61-4.25,7.23-8.48,10.7-12.85,2.25-2.83,2.36-7,5.9-8.87.21.76.46,2.03,1.36,1.56,4.26-2.25,7.21,1.77,10.92,2.17,1.62.17,1.8,2.35,1.36,3.72-1.76,5.46,2.85,10.73.4,16.2-.15.34.46,1.23.92,1.62,7.09,5.58,6.67,17.1,1.42,23.85-4.49,3.37-7.9,10.94-13.11,12.44-2.78-.54-5.34-4.14-8.46-.36-2.16.13-3.4-6.69-6.49-3.24-.91-1.95-2.61-3.15-4.23-4.4-4.76-3.66-5.72-8.72-5.42-14.28-1.19-2.43-1.02-4.71.71-6.84-.1-4.11,3.7-6.76,4.02-10.71Z"/>
    <path class="cls-158" d="m720.46,368.25c-.88-.12-1.77-.24-2.65-.37-.28-.92-.88-1.86-.8-2.75,2.61-14.46-20.59-7.94-13.94-21.56,2.54-7.43,14.84-3.81,14.01-12.58.47-4.68-1.93-12.88,3.33-15.18,3.42-1.03,6.9-.23,10.04,1.87,4.61,3.09,2.15,8.22,3.72,12.18,1.46,12.84,13.77,5.67,3.06,23.55-5.21,3.06-6.16,8.48-7.51,13.67-2.84,2.37-5.95,2.52-9.26,1.17Z"/>
    <path class="cls-30" d="m636.9,224.51c1.28-6.59-1.38-11.23-7.12-14.34-.03-2.24,3.5-3.52,1.33-6.74-.65-.96.95-4.8,4.42-5.86,4.72-1.44,7.97-6.04,13.67-6.15,4.67-.09,6.96.85,6.91,5.64,2.05,12.06-5.58,16.23,1.8,16.73,1.63.09,3.47-.04,3.89,2.06.43,3.31-4.18,3.18-5.54,5.38-6.16,10.26-10.43-11.24-19.37,3.28Z"/>
    <path class="cls-148" d="m689.47,252.76c-8.91-10.86,6.25-18.12,10.6-9.48,4.19,2.13,6.74,6.77,11.74,7.65,6.04,3.02,2.4,3.42,4.87,4.88,3.66,2.55,7.58,4.92,6.9,10.36-.2,2.09.58,4.34-.97,6.22-3.3,4.08-6.28,3.83-12.44-1.01-5.69-5.79-18.36-11.25-20.71-18.62Z"/>
    <path class="cls-30" d="m768.5,330.99c-1.76-.33-4.21,1.01-4.87-2,7.92-6.9-2.25-18.3-7.58-23.79-.18-.86-.96-1.38-1.73-1.89-6.36-4.65,6.66-5.08,4.84-11.47-.19-1.87,2.19-2.02,3.86-1.23,5.81,2.75,12.47,4.49,14.31,12.01,6.2,8.91,5.64,8.91,3.66,19.16-1.26,7.06-9.18-6.11-8.51,3.01.24,3.24-2.13,4.48-3.97,6.2Z"/>
    <path class="cls-103" d="m262.09,291.92c-.07.32-.14.65-.22.97,2.9,5.35-12.31,20.06-15.15,25.9-1.08,1.56-2.65,2.83-4.63,3.33-2.11-.29-2.27,2.25-3.89,2.67-2.4,2.37-4.81,1.39-6.75-.43-3.82-3.52,1.79-7.43,1.42-11.48,1.34-5.53,5.98-3.75,5.06-10.77,2.88-5.73,7.05-10.42,11.77-14.68,2.26-1.82,5.46-1.67,8.15-2.5,4.46-2.74,6.03,3.97,4.23,6.98Z"/>
    <path class="cls-30" d="m273.38,206.7c1.16-5-1.23-16.18,6.67-15.03,5.46,1.41,15.58-6.32,15.87,2.99,2.52,15.74-10.14,4.29-10.36,16.26.13,2.93-2.71,6.27-6.29,6.44-5.01-.14-6.15-6.63-5.73-10.64-.06,0-.11,0-.17,0Z"/>
    <path class="cls-146" d="m808.35,390c0,2.43.21,4.88-.05,7.28-.32,2.86-3.02,3.99-5.07,5.06-3,1.58-4.99-1.7-6.15-3.24-5.25-6.47-18.3-33.46.56-27.05,3.76,5.79,10.15,10.68,10.71,17.96Z"/>
    <path class="cls-169" d="m826.22,448.12c-.72,3.89-3.58,6.91-7.93,6.26-5.94-4.93-14.81-27.3-6.14-31.6,3.99-2.43,7.22.12,9.89,3.28.97,6.47,4.31,12.42,4.17,19.13.94.97.53,1.95.02,2.94Z"/>
    <path class="cls-30" d="m235.66,308.63c-1.53,3.45-1.9,7.24-3.69,10.69-1.76,3.41.06,4.83,6.23,5.47-1.28,6.02-4.81,10.47-9.74,13.94-3.44-9.47-9.1,3.61-11.73,6.9-2.69-1.57-4.53-5.52-8.76-2.7-1.54,1.03-2.04-.49-1.43-1.71,1.62-5.07,9.69-2.11,9.35-8.14.18-6.33,5.21-10.87,6.31-16.99.47-2.63,2.95-1.71,4.52-.06.94.99,1.48,2.77,3.42,1.79,3.18-2.29-1.54-7.89,1.31-10.38,1.78-1.53,2.78.87,4.22,1.21Z"/>
    <path class="cls-160" d="m756.77,304.63c5.99,2.14,19.17,25.34,6.86,24.36-6.02-1.78-6.21-8.81-10.92-11.68-.45-.59-.89-1.18-.67-2-2.38-4.03-6.47-7.24-6.04-12.61-3.09-6.37,9.43-.76,10.77,1.93Z"/>
    <path class="cls-89" d="m570.32,109.28c2.13-.05,4.12-.53,5.83-1.9,3.2,3.47,8.66.19,11.43,4.11,10.12,11.17,14.23,19.02,11.58,34.21-.23,2.74-2.25,17.47-6.24,15.38,5.47-20.87,3.99-51.49-24.46-50.51-.38-1.88.57-1.85,1.87-1.29Z"/>
    <path class="cls-95" d="m807.82,716.74c1.86-.57,1.8-3.77,3.34-5.19,4.42-7.19,14.45-3.04,10.96,5.05-1.34,5.4-4,14.43-11.21,12.57-5.16-1.52-2.64-8.44-3.09-12.43Z"/>
    <path class="cls-30" d="m829.04,210.43c.54,3.07-.73,5.81-3.92,7.16-4.14,1.84-5.89-2.67-8.73-4.52-1.81-.74-5.32-.42-4.44-3.12.99-3,1.16-6.94,5.69-8.23,8-2.27,11.42-.04,11.4,8.7Z"/>
    <path class="cls-30" d="m179.74,232.76c-.48,3.3,1.75,8.52-4.44,8.2-5.61-.28-2.75-5.17-3.33-8.07-1.05-5.27,1.71-10.52.14-15.9-.61-2.12,1.24-4.08,3.05-4.41,2.71-.49,1.68,2.31,1.81,3.52.63,5.6,3.45,10.84,2.76,16.66Z"/>
    <path class="cls-30" d="m717.73,173.65c-.86-4.89,7.22-4.9,3.43-8.48.9-5.34,13.28.05,14.99,3.01,4.31,8.03-11.36,5.16-15.36,8.63-3.03,1.46-2.87-1.29-3.07-3.16Z"/>
    <path class="cls-30" d="m779.51,742.04c4.48-6.08,9.5-11.8,13.08-18.5.61-1.14,1.11-1.79,2.28-2,.76,4.33.32,8.73,1.18,13.13.67,3.43-4.17,1.64-5.63,3.65-.81-1.42-1.65-2.87-2.56-.09-.56,1.71-5.15,2.01-1.69,5.18,1.36,1.25.76,2.99-.08,4.47-1.62,0-3.24,0-4.86,0-1.78-1.59-.42-4.1-1.7-5.84Z"/>
    <path class="cls-30" d="m163.15,266.18c.29-2.53-1.2-7.91,3.1-7.08,2.43.56,6.73.48,5.24,5.08-.96,2.99,1.14,4.91,1.64,7.36,1.22,3.84-1.89,2.01-4.19,2.4-6.43,2.04-5.92-3.33-5.79-7.75Z"/>
    <path class="cls-30" d="m159.55,284.44c-4.65-8.12-2.89-15.82-3.19-23.28-.06-1.54.41-3.06,2.26-3.13,4.7-.13,2.48,21.98.93,26.41Z"/>
    <path class="cls-30" d="m812.66,731.14c-.44,1.68-3.06.95-2.38,2.08.75,1.09,6.03,4.88,6.29,1.64-.02-1.4-.14-3.09,1.91-1.7,1.3.88,3.68,2.27,1.81,4.13-2.04,2.02-2.69,5.8-6.63,5.69-3.97-.11-5.83-3.28-7.98-5.72-1.81-2.05,2.27-5.75,6.98-6.12Z"/>
    <path class="cls-30" d="m334.8,214.63c-1.83,6.93-4.02-6.84-15.82-3.14-2.47.54-2.38-.74-1.61-2.44,4.89-9.46,9.11,5.52,11.65-3.37.33-1.01.13-2.5,1.84-2.26,3.33,2.29,1.29,8.31,3.94,11.21Z"/>
    <path class="cls-30" d="m187.28,217.54c1.59,5.08,4.05,9.92,2.21,15.33-.72,4.31-6.07,3.42-5.81-.85,0-5.05,1.94-9.65,3.6-14.47Z"/>
    <path class="cls-178" d="m822.12,716.6c.47-7.8-4.35-10.19-10.04-4.37-1.6,1.27-1.72,3.48-3.57,4.35,2.05-9.61,1.34-9.48,8.08-10.75,8.17-1.94,7.02,3.86,6.7,9.85-.39.31-.78.62-1.17.92Z"/>
    <path class="cls-13" d="m729.39,366.08c1.96-4.96-.24-11.51,7.84-12.67,3.81-2.65,4.73-.46,4.91,2.94-3.33-1.16-9.63,2.19-10.42,5.62,1.03,4.72,3.8,7.17-3.55,7.92-.95-1.71.73-2.57,1.22-3.82Z"/>
    <path class="cls-30" d="m668.97,215.54c-3.97.03,1.05-5.11-2.72-12.25-.94-1.71,1.18-4.06,2.81-2.71,2.54,2.56,2.1,6.49,4.17,9.44.7,1.19-2.56,4.8-4.26,5.53Z"/>
    <path class="cls-64" d="m216.73,345.63c-.62-5.18,6.64-14.32,11.86-12.16,2.92,2.32-3.03,10.02-3.95,13.06-.69-.02-1.37-.03-2.06-.05-1.97-2.32,1.06-4.01.75-6.47-2.72,1.69-2.76,5.46-5.66,6.66-.31-.35-.63-.69-.94-1.04Z"/>
    <path class="cls-71" d="m815.97,377.81c-5.28-.06-4.15-9.33.91-8.61,5.93.16,4.55,8.7-.91,8.61Z"/>
    <path class="cls-30" d="m236.83,221.48c-.79-.25-3.3,1.04-2.75-2.3.42-2.51.57-4.86,4.16-4.44,2.25.26,4.62.62,4.48,3.26-.15,2.91-2.43,3.96-5.9,3.48Z"/>
    <path class="cls-30" d="m742.09,200.51c.23-2.52-.4-5.54,2.84-5.98,2.52-.34,3.01,2.1,2.98,4.03.61,5.14-6.21,9.28-5.82,1.95Z"/>
    <path class="cls-65" d="m133.85,365.13c-2.24-.12-6.54.5-6.39-2.57.62-4.68,5.8-.58,8.75-1.33,1.4.11,3.23-.27,3.27,1.9-.11,3.03-3.7,1.69-5.63,1.99Z"/>
    <path class="cls-30" d="m909.37,362.86c1.72-2.29-.75-7.82,1.93-8.86,2.69,1.15,2.45,6.04,3.49,8.6,1.27,4.16-6.93,4.96-5.42.26Z"/>
    <path class="cls-30" d="m935.49,497.55c-.58-5.61,6.63-5.5,6.56.07.28,4.86-7.38,5.87-6.56-.07Z"/>
    <path class="cls-24" d="m217.67,346.67c.1-2.87,2.37-4.75,3.32-7.26,1.76-3.88,6.27-2.01,4.19,2.11-.46,1.88-2.79,2.76-2.6,4.96-1.6,1.11-3.21,1.85-4.92.19Z"/>
    <path class="cls-65" d="m169.93,307.61c-2.22-.41-5.31.83-5.48-2.62-.12-2.41,2.24-2.32,4.03-2.33,2.69-.02,6.15.46,6.34,3.16.21,2.95-3.3,1.09-4.88,1.79Z"/>
    <path class="cls-30" d="m192.48,272.83c-.25,2.13.58,5.08-2.48,5.09-3.05,0-2.31-2.92-2.44-4.92-.15-2.3.32-4.75,2.99-4.66,2.97.1,1.41,2.99,1.93,4.5Z"/>
    <path class="cls-30" d="m740.22,347.56c-.17-3.8.16-7.73-2.91-10.75,2.08-.16,3.75,1.3,6.19.84,2.57-.49,3.31,1.77,1.57,4.06-2.16,3.97,3,4.29-4.85,5.85Z"/>
    <path class="cls-30" d="m722.7,265.49c-.32-4.27-4.29-6.28-6.01-9.68,2.57.6,5.28,1.94,7.25-1.91-2.71,4.5,3.75,7.88.53,11.81-.65.43-1.25.41-1.77-.22Z"/>
    <path class="cls-30" d="m422.42,107.39c.8,4.53-6.22,2.14-5.24-1.24.32-1.9.28-5.23,2.69-4.97,3.6.38,1.02,4.49,2.55,6.21Z"/>
    <path class="cls-30" d="m792.54,201.29c1.78.14,8.92,8.56,4.65,9.36-3.44-.43-1.36-5.95-5.98-5.89-2.12-.49-.56-3.8,1.33-3.47Z"/>
    <path class="cls-48" d="m756.77,304.63c-2.75-2.24-6.13-2.85-9.44-3.63-1.76-.42-.79,1.21-1.33,1.7-1.83-.22-3.15-1.15-2.65-3.09,1.01-3.14,6.92.39,9.51.14.24,2.48,4.42,1.8,3.91,4.88Z"/>
    <path class="cls-30" d="m117.18,330.35c-1.39-4.79,6.1-4.06,5.26-.35-.06,5.4-5.4,5.27-5.26.35Z"/>
    <path class="cls-30" d="m349.28,211.83c-5.15.35-1.95-5.16,1.7-4.83,4.63.09,2.04,5.82-1.7,4.83Z"/>
    <path class="cls-30" d="m844.48,296.68c-.18,3.87-5.79,3.48-5.9-.16.26-3.03,6.29-3.59,5.9.16Z"/>
    <path class="cls-30" d="m700.08,243.28c-2.71-2.64-6.07-3.27-9.68-3.12,2.6-.98,5.2-1.95,7.8-2.93,2.15,1.54,1.47,3.96,1.87,6.05Z"/>
    <path class="cls-30" d="m368.2,148.49c1.38.06,2.68.55,2.46,2.14-.17,1.27-.17,3.21-2.04,3.29-2.37-.03-3.56-5.35-.43-5.43Z"/>
    <path class="cls-30" d="m818.99,285.05c4.95-.28,4.06,3.45-.34,3.5-1.28.29-2.86-.31-2.9-1.81-.06-2.29,2.02-1.39,3.24-1.7Z"/>
    <path class="cls-30" d="m715.33,138.81c-.86,2.27-3.01,1.61-4.53,2.2-1.43.55-2.24-.54-2.08-1.74.26-2.01,2.08-1.56,3.42-1.59,1.17-.03,2.59-.39,3.2,1.13Z"/>
    <path class="cls-30" d="m402.03,111.5c1.12,3.56-4.24,3.22-3.54-.04.02-1.3-.08-2.79,1.74-2.94,2.59-.21,1.36,1.99,1.81,2.98Z"/>
    <path class="cls-30" d="m818.3,298.2c-2.9,3.2-5.41,2.68-7.9,1.97-.68-3.63,5.04-2.18,7.9-1.97Z"/>
    <path class="cls-30" d="m370.68,189.46c3.4-.64,3.48,3.9.19,3.79-4.25.38-4-3.5-.19-3.79Z"/>
    <path class="cls-30" d="m381.66,184.88c-.54,2.58-5.61,1.92-5.17-.68.5-2.53,5.16-1.86,5.17.68Z"/>
    <path class="cls-71" d="m744.09,346.58c.34-2.75-4.74-4.78.99-4.87.59,1.33,1.63,2.66,1.65,4,.03,1.89-.81,3.46-2.64.87Z"/>
    <path class="cls-30" d="m879.94,351.93c.02-2.91,4.11-3.81,4.36-.58.18,2.77-4.29,3.9-4.36.58Z"/>
    <path class="cls-30" d="m853.22,288.74c-2.66-.2-2.07-4.72.21-4.87,2.91-.31,2.3,4.82-.21,4.87Z"/>
    <path class="cls-30" d="m901.31,339.22c1.73.63,3.74,5.32.69,5.01-2.35-.39-3.85-4.58-.69-5.01Z"/>
    <path class="cls-30" d="m808.35,390c-.14-2.69-3.6-4.19-2.59-7.29,2.06.19,2.39,3.17,4.72,2.93,1.09,2.33-2.51,2.37-2.12,4.35Z"/>
    <path class="cls-30" d="m787.68,205.82c1.64-.11,1.32,1.12,1.28,1.99-.15,5.78-6.8-.77-1.28-1.99Z"/>
    <path class="cls-30" d="m862.13,549.04c-.71-5.47-.94-10.93,0-16.4,0,5.47,0,10.94,0,16.4Z"/>
    <path class="cls-30" d="m692.9,167.28c-.58,2.33-4.58,1.56-4.54-.5.34-1.82,4.64-1.72,4.54.5Z"/>
    <path class="cls-134" d="m865.96,500.92c-2.6-.78-5.93.45-7.66-2.76,3.13-.67,5.44.92,7.66,2.76Z"/>
    <path class="cls-30" d="m585.4,198.32c-1.99,2.57-4.79,1.37-7.29,1.59,1.83-3.3,4.83-1.2,7.29-1.59Z"/>
    <path class="cls-92" d="m722.7,265.49c.59.07,1.18.15,1.77.22-.21,2.18,1.43,6.35-1.85,6.68.03-2.3.05-4.6.08-6.9Z"/>
    <path class="cls-121" d="m865,576.16c-3.06-1.74-1.53-4.58-1.7-7.02,2.54,1.86,1.77,4.53,1.7,7.02Z"/>
    <path class="cls-30" d="m811.99,241.23c.13-2.35,3.4-4.09,4.09-1.54-.7,1.96-2.21,1.88-4.09,1.54Z"/>
    <path class="cls-30" d="m592.76,199.97c-2.23-.07-4.68.68-6.33-1.64,2.17.31,4.9-1.54,6.33,1.64Z"/>
    <path class="cls-167" d="m853.53,498.02c-1.3,3.02-3.92,1.49-6.02,1.76,1.34-2.86,3.87-1.67,6.02-1.76Z"/>
    <path class="cls-120" d="m251.09,288.17c-.64-1.05-2.04-1.6-2.01-3.09.97-.66,1.95-1.31,2.92-1.97,1.39,1.01.26,2.08.06,3.12-.02.8-.07,1.58-.97,1.94Z"/>
    <path class="cls-30" d="m235.4,303.63c1-1.26,2.18-1.84,3.74-1.01.4,1.93-1.03,3.14-1.8,4.61.27-1.69-.99-2.56-1.94-3.6Z"/>
    <path class="cls-30" d="m715.72,253.98c-1.95-.19-3.53-.85-3.9-3.05,2.82-.92,4.27-.1,3.9,3.05Z"/>
    <path class="cls-30" d="m633.11,233.28c.72-2.3.74-5,3.44-6.21.65,3.06-1.47,4.59-3.44,6.21Z"/>
    <path class="cls-30" d="m271.24,232.71c-2.13.78-3.48.82-5.54-.31,2.04-1.29,3.41-1.29,5.54.31Z"/>
    <path class="cls-30" d="m752.04,315.31c.85.46.79,1.22.67,2-.92.32-1.83.65-2.75.97-1.96-2.85.22-2.8,2.08-2.97Z"/>
    <path class="cls-17" d="m756.79,816.17c-5.19-1.95-11.09-2.37-16.27-3.8-4.6-3.88-9.55-3.21-14.71-1.63-6.62,2.45-13.71-1.32-20.16.64-7.71,3.16-15.18-.66-22.78-.63-18.4-1.53-36.02,4.88-54.53,1.37-6.4-2.2-17.89.41-20.88-7.32-.61-2.26-.77-4.09,2.57-4.26,4.33-.23,7.89-3.9,12.58-2.99,2.65.05,1.65-3.09-.65-2.82-15.25-12.58,17.16-8.6,22.54-4.74,2.84,5.31,24.48-2.3,24.92,4.88.2.82,1.38.99,2.12.69,2.5-1.01,4.36.15,6.26,1.51,1.92,1.07,6.19,1.21,6.51-1.65.3-4.02-7.72-1.55-2.55-6.14,5.53-7.43,4.94,1.04,9.01-2.32,4.55-4.73,10.39-2.6,15.72-2.83,2.88-.13,2.83,1.82,1.2,3.47-9.96,6.09,2.39,14.51,9.75,11.71,4.34-1.85,7.4,1.66,11.55-1.41,7.06,6.9,14.11.71,21.14-.08,2.54-.28,5.23.6,7.63-.85,1.59-2.31,3.97-1.9,6.17-1.61,7.01.95,13.86.06,20.64-1.67,11.71-4.95,31.19,11.51,16.31,18.66-4.3,7.74-14.42,3.78-21.61,4.72-11.09-2.88-3.94-15.87-10.52-15.66-3.11.23-2.57,2.79-2.76,4.82,1.32,5.52-.05,9.27-5.68,10.9-1.35.32-2.57.14-3.54-.95Z"/>
    <path class="cls-78" d="m279.47,817.16c-4.79-7.11-3.37-19.89,6.8-20.35,5.36.06,10.75.1,16.08.58,47.94-.72,95.98-1.21,143.93-.53-6.91,8.85-10.11-.67-14.42,1.63-3.03,2.98-6.48,1.53-10.02,1.49-18.38-.42-36.72,3.5-55.03,1.11-3.51-.26-6.67,1.03-10.06.68-.78-.08-1.56.57-1.74,1.45,0,2.97,4.38,3.41,6.65,3.17,13.63-2.37,26.9.14,40.47,1.05,10.51-.08,21.01,1.21,31.19,3.16,19.64,4.34,39.33-3.53,57.88,5.47-17.45,1.89-35.14-.27-52.68.92-13.5-.23-26.86,1.75-40.3,1.12-8.05.66-16.03-1.38-24.19-.73-15.77,2.16-32.45.13-48.52.79-1.45,0-2.94.09-4.2-.87-6.07-.04-12-3.36-17.95-.63-.85.47-1.82.04-2.7.34h.04c-1.89,2.21-4.99.29-7.01,2.04-4.83.02-9.72.45-14.24-1.89Z"/>
    <path class="cls-30" d="m216.78,725.35c.46,2.95-.75,4.31-3.76,4-5.27-.54-4.36,5.15-7.09,7.27-.7.54,1.23,1.94,2.35,2.55,2.08,1.8,5.65-.11,4.19-2.88-.54-1.16-1.14-2.29-2.14-4.27,4.5,1.04,8.43,3.09,12.37.43,3.04-.06,3.56,6.3,1.74,8.5-3.04,4.54-16.36,6.83-20.5,3.21-5.61-3.87-13.79-3.33-14.19-12.38-.46-6.47-2.67-12.9-3.12-19.32,4.43-12.58-19.08-14.64-14.85-30.55.25-1.14-.09-2.89-.86-3.68-4.07-4.19-2.02-9.08-1.85-13.73.09-2.49.95-4.34,4.16-3.99,2.38.26,4.63-.3,4.61-3.51,3.47.18,4.19,11.03,7.81,13.8,6.79,7.73,7.49-.89,12.57-.24,1.48,2.17.45,6.09,5.48,5.84,2.24-.11,2.97,3.93,2.01,6.59-.82,2.27-1.85,4.54-3.2,6.53-6.79,7.67,3,11.47-5.44,13.14-.96-2.25,3.19-4.48.24-5.97-2.36-1.07-2.31,2.13-3.12,3.39-1.31,2.03,1.46,7.62,3.93,8.73,2,1.25,1.55,3.39,1.89,5.23.94,5.24,3.48,9.14,8.37,11.72,3.13,1.65,5.58-1.28,8.41-.42Z"/>
    <path class="cls-141" d="m340.73,731.33c13.65,15.32-1.91,40.69-16.05,50.67-7.1,8.96-17.07,5.25-26.04,5.86-3.72.63-3.65-4.78-7.52-3.89.31-3.43-3.24-2.44-4.63-4.03-38.05-35.58-6.85-72.24,17.51-47.87,3.64,5.66,3.7,2.38,7.55-.95,1.87-5.24,8.66-6.78,13.64-6.86,6.92-2.9,14.52.55,15.54,7.05Z"/>
    <path class="cls-17" d="m496.1,816.03c-.34-3.22,2.17-1.66,3.25-1.67,10.73-.17,21.47-.03,32.19-.1,1.22-.09,3.06.41,3.16-1.35.35-2.58-7.2-1.37-9.21-2.22-9.9-.93-19.82-1.66-29.75-2.2-3.82-.21-7.62,1.94-11.51.33-1.11-.46-2.96-.2-2.96-1.93,0-1.43,1.75-1.14,2.62-1.76,6.11-4.9,13.45-1.71,20.51-3.5,14.38-.8,28.71-.39,42.99,1.61,3.38.47,5.77-1.81,8.46-3.18,1.72-.88,5.31.52,5.02-2.41-.27-2.74-3.69-3.15-6.17-3.8-1.19-.31-2.93.21-3.15-1.51.41-2.12,5.49-3.99,7.61-4.49,4.83-.93,9.13-3.25,12.33-7.08,3.81-1.32,8.07.27,11.95-2.35-7.99,5.9-5.21,13.37-10.46,15.31-3.78,1.37-2.66,3.33-.13,4.54,3.87,1.85,2.33,5.06,2.09,7.63-.28,2.99-3.14,3.63-5.61,3.45-10.32-.77-19.97,3.27-30.06,3.98-1.81.13-2.36,1.5-3.14,2.71-6.95,1.76-14.33-.36-21.5.34-6.18.37-12.37.99-18.52-.34Z"/>
    <path class="cls-30" d="m177.69,543.57q2.85,1.81,1.06,5.12c-7.82-1.89-9.74,6.15-14.55,9.98-2.24,1.52-4.25,2.95-4.12,6.06.21,2.31-3.16,2.74-2.78.05.1-2.99-2.55-4.92-3.76-7.15,1.32-7.18-6.23-8.87-8.49-13.8-1.34-2.87-4.95-5.76-2.49-9.15,1.94-2.55,2.7,1.93,4.44.6.55-.68.52-1.71-.04-2.17-4.71-3.81-2.3-8.8-2.37-13.39-.04-2.9,1.39-3.86,4.2-4.02,5.66-.33,11.07-1.91,16.29-4.11.37,1.71-1.02,4.09,1.83,4.87,2.74,2.7,2.2,6.12,1.1,9-1.94,5.09.79,9.43,1.43,14.08.93,3.59,6.12,1.54,8.25,4.01Z"/>
    <path class="cls-87" d="m234.53,795.77c2.87-.19,5.66-.87,8.55-1.09,11.5-1.53,18.52,12.67,9.7,20.32-2.48,3.63-3.77,2.63-7.04,4.02-2.64,0-5.28-.01-7.92-.02-7.94-1.03-14.2-5.98-12-15.65.86-3.59,2.93-7,7.72-6.71.31.02.66-.56,1-.86Z"/>
    <path class="cls-125" d="m198.21,670.57c-2.57,1.07-2.03,5.19-6.12,5.29-9.42-.5-12.15-11.52-14.26-18.85.18-4.6-1.22-9.67,3.82-12.82.71-1.68,2.53-.73,3.96-.9,5.29-1.8,8.6,1.17,8.85,7.94-.19,1.14-.16,2.23.85,3.04,4.07,4.54,2.74,10.79,2.9,16.31Z"/>
    <path class="cls-30" d="m157.53,617.86c4.22,2.93-3.59,11.51,6.16,8.94,13.53-3.77,20.23,9.24,11.14,18.06-1.82,1.02,2.14,5.77-4.52,3.99-7.67-1.74-9.12-.39-10.81-9.58-5.69-5.74-1.49-13.02-3.12-19.37-.08-.78.39-1.6,1.14-2.03Z"/>
    <path class="cls-69" d="m184.44,597.65c-.1,6.48,2.62,14.09-2.84,19.19-9.64,2.18-16.91-9.32-13.45-18.02.79-2.35-.13-4.81.67-7.13.82-5.31,4.77-5.84,9.02-5.86,4.7-.02,4.12,3.87,4.93,6.72,1.39,1.43.37,3.65,1.66,5.11Z"/>
    <path class="cls-33" d="m216.78,725.35c-10.69,7.6-20.27-5.85-18.67-16.53.18-3.81,2.53-5.92,5.99-6.1,7.72.31,11.45,12.41,12.85,18.8.98,1.33,1,2.62-.18,3.85v-.02Z"/>
    <path class="cls-30" d="m168.83,591.69c.28,8.01-.92,16.57,4.24,23.34-3.13,1.02-2.8-3.19-5.59-3.55.8,3.39-.56,5.5-3.88,5.34-8.59-1.72-2.56-14.24-3.31-20.24,0-5.02,5.29-.47,4.81-4.91,3.41.78,1.07,3.9,2.38,5.64,1.25-1.68-.3-4.07,1.34-5.61Z"/>
    <path class="cls-53" d="m760.65,816.08c.15-1.1.75-1.75,1.87-1.85,4.94-.57,1.04-6.57,1.94-9.84-.17-3.23.71-4.93,4.6-4.92,8.56-.33.25,11.36,10.22,17.6-1.74.64-2.89-1.65-4.65-.94-6-3.79-10.01,4.25-13.98-.04Z"/>
    <path class="cls-30" d="m186.6,782.04c.55-2.77-1.7-8.35,2.42-8.73,1.65-.04,3.93-.09,3.99,1.8.16,4.93,4.06,10.19-1.04,14.84-5.8,5.9-5.65-4.16-5.37-7.91Z"/>
    <path class="cls-30" d="m321.32,817.3c17.57.03,35.15.05,52.72.08-.59,2.25-2.45,1.75-3.99,1.76-14.94.03-29.87.03-44.81.01-1.55,0-3.4.43-3.92-1.84Z"/>
    <path class="cls-30" d="m634.05,816.34c25.18.71,51.57-1.23,76.18.69-25.6,0-51.2,0-76.81-.01.05-.37.26-.6.63-.68Z"/>
    <path class="cls-17" d="m634.05,816.34c-.19.24-.4.47-.63.68-7.38.1-14.76.2-22.13.29-3.58,1.25-7.15,1.39-10.73,0-10.32-1.02-21.8.59-31.55-.91,21.68-.02,43.36-.04,65.04-.06Z"/>
    <path class="cls-30" d="m386.74,817.38c10.41,0,20.83,0,31.24,0-.69,3.83-23.46.89-28.24,1.77-1.36,0-2.63-.11-3-1.77Z"/>
    <path class="cls-120" d="m206.11,375.88c1.93,1.12,3.33,3.04,5.58,3.7,1.02.3,2.66.37,2.38,1.81-1.44,2.9-12.27.65-15.77,1.32,3.01-1.8,6.47-3.1,7.81-6.83Z"/>
    <path class="cls-30" d="m760.65,816.08c3.53,1.16,6.07-2.67,9.58-1.87,1.62.37,3.68-.48,4.39,1.91-7.99-.37-10.25,8.33-19.12.92-.08-.39.08-.64.46-.75.3.17.58.13.82-.12,1.29-.03,2.57-.06,3.86-.09Z"/>
    <path class="cls-139" d="m194.45,651.22c-1.95-3.77-2.98-8.55-8.85-7.94,1.34-1.41.87-3.81,4.63-3.78,3.95.03,3.97,1.47,3.56,3.84-1.49,3.32,5.57,6.18.66,7.88Z"/>
    <path class="cls-30" d="m726.52,817.37c7.43.41,15.31-1.34,22.46-.06-3.99,4.04-13.89.9-19.5,1.85-1.36,0-2.59-.16-2.96-1.78Z"/>
    <path class="cls-30" d="m569.02,816.4c.26.22.53.44.79.66-14.06-.58-28.62,1.39-42.44-.69,13.87-.7,27.76.01,41.65.03Z"/>
    <path class="cls-30" d="m496.1,816.03c6.17.11,12.35.22,18.52.33-13.44,2.09-27.63.09-41.32.66,6.73-1.9,15.43-.36,22.8-.99Z"/>
    <path class="cls-139" d="m198.31,664.89c-2.12-3.23-2.63-6.91-3.01-10.63,1.32-1.01,2.65-2.02,3.97-3.03h0c-.47,4.54,1.05,9.23-.96,13.67Z"/>
    <path class="cls-17" d="m474,816.36c-.22.23-.45.45-.7.66-11.59-.01-23.18-.02-34.77-.03,11.59-2.08,23.68-.12,35.47-.63Z"/>
    <path class="cls-30" d="m178.77,453.02c-.96-.58-1.92-1.16-2.88-1.75,9.42-.02,18.84-.04,28.25-.06-8.31,2.64-17.29-1.09-25.37,1.81Z"/>
    <path class="cls-30" d="m183.68,643.26c-.68.31-1.35.61-2.03.92-.75-1.1-3.89-.79-2.2-3.2,1.97-5.06,7.2-2.23,4.23,2.27Z"/>
    <path class="cls-30" d="m209.25,757.36c-3.71.57-4.48-8.13-1.08-7.01,1.72,1.94.51,4.58,1.08,7.01Z"/>
    <path class="cls-30" d="m300.68,817c5.72-2.74,12.22-2.09,17.91.12-4.83.82-9.9-1.29-14.61,1.42-1.29.74-2.17-1.05-3.3-1.54Z"/>
    <path class="cls-30" d="m600.57,817.32c3.58,0,7.15,0,10.73,0-3.48,2.62-7.87,2.62-10.73,0Z"/>
    <path class="cls-30" d="m92.73,374.71c-1.27,1.89-4.78,3.13-4.88.3,1.35-1.58,2.87-1.22,4.88-.3Z"/>
    <path class="cls-17" d="m710.23,817.03c-.27-.22-.54-.45-.81-.67,4.71.12,9.47-.95,14.11.63-4.44.01-8.87.03-13.31.04Z"/>
    <path class="cls-120" d="m138.73,438.37c0,3.25,0,6.5,0,9.75-1.73-3.25-2.8-6.5,0-9.75Z"/>
    <path class="cls-30" d="m216.77,725.37c.06-1.28.12-2.57.18-3.85,3.91-.87,3.39,5.94-.18,3.85Z"/>
    <path class="cls-30" d="m293.71,819.05c1.72-2.81,4.62-1.57,7.01-2.06-1.54,3.4-4.53,1.87-7.01,2.06Z"/>
    <path class="cls-139" d="m168.04,455.95c2.6.48,4.22-2.45,6.83-1.95.3.53.59,1.06.89,1.59-2.58-.12-5.04,2.55-7.72.36Z"/>
    <path class="cls-30" d="m231.49,817.27c2.19.26,4.77-.87,6.33,1.73-2.18-.32-4.97,1.62-6.33-1.73Z"/>
    <path class="cls-30" d="m178.76,621.35c-2.38-.15-1.76-2.98.14-3.1,2.6-.14,1.54,2.79-.14,3.1Z"/>
    <path class="cls-17" d="m748.98,817.31c-1.62-.1-3.23-.2-4.85-.29,3.87-1.59,7.89-.49,11.84-.72-.15.25-.3.5-.46.75-2.18.09-4.36.18-6.54.26Z"/>
    <path class="cls-120" d="m182.67,382.71c-1.96-.26-4.12.69-5.85-.97,2.27-1.58,4.25-1.49,5.85.97Z"/>
    <path class="cls-30" d="m245.74,819.01c1.11-2.28,3.37-1.57,5.2-1.99.02.71.04,1.41.07,2.12-1.76-.04-3.51-.09-5.27-.13Z"/>
    <path class="cls-66" d="m431.7,668.04c7.45-5.13,13.06-12.41,20.14-17.92,2.58-3.13,3.32-3.07,4.79.68,18.23,39.84,63.29,70.02,107.77,57.95,30.92-5.01,51.7-20.88,66.66-47.97,3.46-4.64,5.47-9.66,6.41-15.39,2.28-9.5,6.43-18.64,8.34-28.28,3.97-4.33,6.46.43,9.42,1.93.62-1.57-.36-2.17-.97-2.82-5.09-4.44.87-11.88,6.65-9.87,9.54,4.81,15.19-15.27,18.74-9.89,3.26,48.8-24,95.51-60.47,126.31-37.86,33.6-96.56,40.54-140.82,15.2-28.85-16.63-38.49-22.52-47.23-55.63-2.29-5.14,3.92-8.36.58-14.3Z"/>
    <path class="cls-81" d="m513.54,617.96c1.04-30.24,29.1-58.32,60.09-51.54,24.57,5.37,39.92,33.26,33.61,57.08-4.4,27.34-30.62,44.63-57.18,46.78-16.09,1.5-25.19-3.16-33.41-17.13-3.62-11.18-5.61-23.72-3.11-35.18Z"/>
    <path class="cls-153" d="m678.62,595.56c-1.76,5.58-9.28,7.44-8.82,13.86.13,3.09-2.47,4.29-3.89,1.23-1.58-1.49-3.5-2.37-5.48-3.06-2.95-1.03-5.12.41-6.54,2.82-3.23,4.68,7.53,5.81,3.2,10.37-4.56,3.44-4.83-7.12-10.64-3.73-2.74-1.13-2.4-3.56-2.42-5.8.15-13.44-6.14-25.71-10.27-38.22-3.74-8.51-10.38-14.89-16.29-21.79-1.38-1.61-3.01-3.04-2.71-5.46.84-2.12-.53-2.86-2.14-3.57-8.27-3.66-16.72-7-22.93-14.07-8.66-5.86-20.14-.51-28.5,3.37-11.08,2.64-21.76,7.87-33.1,8.96-13.01-.23-11.76-13.16-11.49-22.8-.96-12.57,15.69-1.76,27.63-15.86,3.95-8.1,10.32-17.44,20.32-17.9,5.44-.15,8.99,3.32,8.6,8.77-.38,5.47,2.97,9.46,4.87,14.01.8,1.93,3.09,2.16,5.08,2.28,4.54.29,9.04-.63,13.6-.32,10.25-.96,7.35-25.14,20.11-16.51,2.46,1.52,4.84,3.3,7.86,3.6,13.58,4.91,22.79,16.95,33.15,26.43,5.17,4.13,3.69-6.6,6.41-8.66,7.14,7.89,13.3,15.78,10.82,27.05.85,8.24,4.43,15.87,5.17,24.12.72,8.7.33,17.41.27,26.11-.01,1.77-.27,3.57-1.87,4.78Z"/>
    <path class="cls-114" d="m294.96,712.73c-10.06-4.42-14.12-12.62-12.48-23.54,1.1-6.68-1-10.27-7.95-13.14-17.69-8.95-31.44-26.45-42.43-42.63-17.64-29.18-26.23-65.56-18.6-99.26,1.86-5.88,8.44-10.8,14.6-10.82,20.97-.07,41.94-.05,62.92-.06-1.6,4.77.61,8.16,3.68,11.58,3.89,4.05,1.29,9.05-4.46,7.95-10.67.72-22.14-1.44-32.39.87-1.5,2.01-3.74,1.72-5.8,1.77-5.69,1.42-19.57-3.72-19.81,4.86-1.15,32.81,10.85,66.36,34.51,89.49,8.24,9.25,18.15,16.3,29.06,22.03,1.8.94,4.18,1.28,4.03,4.12-2.7,2.58-7.92-2.2-9.3,2.61-2.36,5.99-1.85,7.45,2.96,12.3.78,1.13-1.4,3.3.83,3.67,2.19.37.94-2.75,3.73-4.03-1.98,4.5-.15,7.99.29,11.66.12.98-.17,2.08.98,2.36,1.47.36,1.34-.94,1.48-1.84.54-5.85,6.4-.67,2.89,2.64,3.57,1.68,7.35.61,11.02.73,6.23-.58,11.35,3.96,17.47,2.95,8.82-.69,10.9,3.61,17.59,7.67.75.42,2.31-.02,2.1,1.31-7.36,7.15-46.79,8.72-56.91,4.71Z"/>
    <path class="cls-115" d="m615.13,545.88c8.84,11.31,20.7,21.25,23.28,35.99,6.11,12.93,6.56,27.63,5.42,41.67-.97,9.27-5.83,17.94-7.26,27.21-10.21,19.4-23.36,38.33-42.86,49.27-12.1,9.76-34.82,11.84-50.17,12.67-32.58-1-65.58-20.13-80.68-48.74-2.8-5.36-7.77-15.78-2.74-20.75,2.34-1.88,4.7-1.35,6.59.49,2.22,2.15,4.73-.79,6.86.73,5.02,6.98,9.6,14.33,15.17,20.84,51.27,62.01,150.45,9.87,139.11-66.14-3.56-24.46-22.57-47.08-46.81-53.55-2.44-1-4.9-2.13-4.56-5.34,6.06-11.12,32.38-3.03,38.64,5.66Z"/>
    <path class="cls-43" d="m531.04,319.36c.79,3.35,4.41,2.99,6.49,4.76,2.63,2.24,6.26,3.3,9.46,4.87,10.48,8.66,1.15,38.99-2.97,50.45-15.89,45.8-45.81,74.78-77.45,109.53-10.01,10.52-14.84,25.84-27.09,34.13-4.6.47-9.2.4-13.8.02-8.9-.86-9.4-2.12-4.36-9.87,5.64-8.67,12.49-16.41,18.77-24.58,9.18-14.65,21.82-26.43,32.87-39.58,7.69-9.94,15.02-20.16,22.69-30.12,10.35-11.85,25.62-37.98,26.21-53.72,3.68-7.55-2.31-51.1,9.18-45.88Z"/>
    <path class="cls-19" d="m439.48,523.1c.85-3.69,4.26-5.56,6.42-8.19,9.68-12.97,18.4-26.64,29.65-38.34,22.47-25.04,47.21-49.37,59.85-80.99,8.86-17.64,19.56-47.57,11.59-66.58,6.03,3.55,18.3,3.48,19.69,11.46,1.38,14.39-1.13,28.13-5.63,41.76-12.33,48.33-49.75,84.01-78.72,122.9-18.25,26.38-2.03,17.02-42.85,17.99Z"/>
    <path class="cls-138" d="m260.41,634.8c-4.61-1.05-5.6-5.8-7.88-8.76-15.1-21.55-22.71-48.84-21.89-75.04.16-7.27.17-7.24,7.22-7.23,38.93.53,78.35-1.5,117,1.01,11.25.72,42.36-2.49,47.55,8.11-1.51,4.6-5.76,4.07-9.43,4.04-12.01-.1-24.03-.1-36.04.02-9.57,1.27-18.83,1.31-28.45.22-4.83.17-9.56-2.24-14.44-.58-14.4-.37-28.59,2.26-42.9,3.15-6.47.4-12.83,1.61-19.27,2.29-3.37.35-5.57,1.93-3.82,5.85-.25,10.9-1.39,16.74,11.92,16.46,5.58,1.18,6.1,6.53,6.58,10.23,2.1,13.56,16.53,37.32-6.16,40.23Z"/>
    <path class="cls-174" d="m461.11,584.99c-5.32,17.83-12.5,36.17-25.51,49.81-5.68,6.23-14,18.99-23.83,11.47-.82,5.59-8.42,13.34-12.95,7.55-.75-1.09-1.37-3.2-3.18-1.9-1.47,1.06-3.1,2.6-2.11,4.92,2.86,4.65-2.78,9.37-7.2,5.19-12.95-13.57-30.07-11.12-29.49-17.55.96-3.69,10.7-2.62,14.95-9.64,2.11-1.84,5.13-2.36,6.11-5.41,7.17-5.43,16.12-8.53,21.61-16.16,8.32-6.48,20.89-25.48,22.06-35.51.32-1.43.4-3.42,2.87-2.38,2.58,10.35,12.01,7.08,20.3,7.94,3.16.54,5.83-.34,8.68-1.74,2.65-.57,8.93-.95,7.7,3.42Z"/>
    <path class="cls-70" d="m372.99,634.54c-2.25,5.57-6.96,7.73-12.38,8.85-1.07.22-2.56-.2-2.82,1.27-.29,1.64,1.71,1.19,2.24,1.89,2.39,3.11,6.01,1.52,8.95,2.51,2.51.84,5.04,1.11,6.4,3.74,5.15,2.25,9.89,5.12,13.66,9.58,1.33,1.43,2.56-.51,3.57-1.46,3.28-2.87-4.24-4.57-1.79-5.88,2.93-1.24,1.73-5.89,5.73-5.79,2.55.06,2.71,1.71,3.23,3.43.64,2.12,2.28,3.2,4.01,1.61,2.57-2.36,7.56-3.25,5.73-8.72-.58-1.74,1.46-2.74,2.17-1.52,1.96,3.38,5.48,2.88,8.23,4.19-16.61,15.59-39.54,24.03-61.65,28.23-8.43,5.29-38.11.81-46.53-5.17-1.72-6.76-15.75-5.63-20.74-13.67-3.32-1.68-7.37-2.43-9.93-5.66-4.57-3.77-2.68-10.84,3.77-9.92,2.89.36,5.56,1.27,8.19,2.58,3.71,2.24,8.09.54,12.12,1.45,21.28,3.21,42.61-1.35,61.61-10.84,2.07-.79,3.91-2.59,6.23-.67Z"/>
    <path class="cls-27" d="m664.23,513.5c.85,4.24-2,17.41-7.69,10.17-15.65-18.66-36.3-32.62-60.37-37.55-14.22-3.76-32.36-6.32-44.09,4.05-1.35.85-2.44,2.5-3.97.32.17-27.14-4.69-24.66,18.44-26.65,38.4-2.21,75.99,18.21,97.67,49.67Z"/>
    <path class="cls-170" d="m528.32,538.96c13.08-2.77,25.85-7.1,38.62-10.54,1.7-1.25,6.21-1,6.59,1.63-.95,4.31-15.51,4.51-19.74,7.37-5.54,2.39-8.84,7.09-12.55,11.42-18.72,8.26-33.72,22.1-42.31,40.82-5.24-1.23.47-9.83-5.03-10.78-4.22-.56-7.28,2.31-8.04,6.42-.39,2.11-.7,4.24-3.37,4.61-.84.12-1.64-.1-1.13-1.31,2.95-9.9,3.19-20.38,7.44-30.1,2.2-5.02,1.61-11.21,1.17-16.88-.84-10.72,4.63-18.95,10.53-26.91,1.04-1.4.86-5.12,4.44-3.95,10.45,3.95-1.75,15.11,2.23,23.22,1.83,10.37,14.07,4.25,21.17,4.97Z"/>
    <path class="cls-47" d="m612.07,266.49c.05,2.31.34,4.64-.71,6.84-1.84,2.64-.45,6.38-3.28,8.84-1.22,1.05.45,2.15,1.33,3.11,1.28,1.38,2.12,3.26.6,4.78-3.83,3.19-5.99-7.07-10.9-3.98-6.04,2.58-.44,8.3-3.41,12.54-17.56-.87-34.84-10.47-52.76-12.65-2.42-2.37-6.13-.43-8.62-2.56,6.43-5.3,19.94-5.2,20.5-14.32,1.25-5.47,10.36-1.65,14.54-2.52.64,1.49-1.04,2.15-1.52,3.81,7.16.78,13.27,4.17,20.22,5.13,1.54.98,3.06,1.88,4.73.17,2.07-2.11,1.76-4.85,1.46-7.29-.79-3.32-6.61.3-8.33-2.94.44-.46.9-1.32,1.32-1.3,9.36-.07,19.5-10.46,24.83,2.35Z"/>
    <path class="cls-26" d="m515.64,387.61c-1.96,12.17-12.12,20.95-19.31,30.39-7.11,6.85-11.54,15.73-17.83,23.2-2.62,3.41-11.46,8.8-11.76.96,5.42-9.11,13.94-15.76,19.62-24.71,4.06-6.64,6.03-14.35,10.12-21.06,3.99-9.19,8.19-18.24,9.28-28.36.16-1.47.85-2.77,1.88-3.86,2.34-6.89,2.32-14.05,2.25-21.19-.06-5.99,5.7-6.11,8.71-9,1.46-2.13,4.19-3.14,5.09-5.77,2.82-.86,1.56,7.61,1.66,9.38.2,9.55.38,19.12-1.94,28.5-1,1.11-1.87,2.36-1.89,3.87-.08,6.52-4.74,11.5-5.88,17.65Z"/>
    <path class="cls-5" d="m323.51,465.6c3.08,1.53,3.83,4.95,5.53,7.45,5.36,7.84,13.43,12.29,20.62,17.89,1.94,14.47-19.4,5.83-14.65,15.55-3.02,3.45-13.04-5.56-15.18-8.38-9.1-8.48-13.22-15.66-17.32-27.37-.83-4.72-10.47-13.61-7.41-16.75,4.23,1.53,8.76,1.51,12.94.79,11.23-2.93,11.54,20.24,15.46,10.81Z"/>
    <path class="cls-99" d="m466.74,442.16c8.8,8.75,17.95-13.31,22.59-19.29,1.66-3.19,5.19-4.95,7.58-7.8,3.86-3.52,5.74-10.46,10.98-11.8-.54,4.28-3.39,7.43-5.97,10.35-7.09,8.06-13.52,16.72-19.71,25.35-15.32,20.66-33.95,38.3-48.01,59.93-4.16,5.64-9.16,10.58-12.69,16.78-4.13,6.58-1.32,5.26,4.17,7.45-3.32-.9-17.85,2.87-16.31-2.38,2.44-11.56,8.74-20.8,17.27-28.7,7.58-7.74,13.66-16.54,19.45-25.69,6.07-8.52,14.93-15.2,20.64-24.19Z"/>
    <path class="cls-175" d="m513.59,307.67c2.02,4.93-2.52,7.39-4.82,9.45-7.98,7.19-16.92,13.23-27.37,16.52-4.2-.44-7.64-3.12-11.79-3.88-2.59-.48-4.31-2.4-2.09-5.32,15.36-9.35,34.03-19.29,38.72-38.12.51-2.74,1.74-5.21,3.35-7.44,1.12-3.41.7-7.49,4.6-9.64,1.72-.95,3.25-2.06,5.12-.41,0-2.62-1.42-5.54,1.91-7.18,10.5,30.13-22.69,25.34-7.61,46.03Z"/>
    <path class="cls-177" d="m313.49,490.14c3.86,1.14,5.25,4.91,7.74,7.47,7.32,9.52,26.52,9.47,19.89,16.58-.85,7.33-3.53,11.06-11.12,7.64-11.24,2.12-16.71-6.95-23.74-12.57-8.69-6.96-15.05-16.01-20.19-25.89,11.23-2.46,18.54.67,27.42,6.77Z"/>
    <path class="cls-128" d="m548.91,491.07c7.77-7.48,18.66-10.08,29.44-9.73,5.71.27,11.75-1.3,16.62,3.32.5.47,1.52.49,2.31.55,9.82,1.25,21.25,4.38,27.69,11.75-6.37,1.03-15.05-12.04-17.25-.82-2.43,6.49-5.14,16.15-14.04,14.16-6.21-1.42-17.2,4.04-18.52-5.69-.26-1.84-1.25-3.32-2.31-4.77-3.78-5.74,2.1-16.13-9.49-14.48-14.11,1.97-12.63,15.87-16.66,11.41.13-1.61.26-3.23.39-4.84.49-.53,1.07-.89,1.82-.86Z"/>
    <path class="cls-179" d="m308.98,390.32c17.11-1.55,34.25.64,51.39.37-.27,2.48-2.93,1.26-4.61,2.77,4.59,1.28,6.4,3.35,4.9,8.15-1.52,4.84-4.88,4.42-8.4,4.53-12.69.42-25.37.75-38.05,1.27-5.36.22-10.02-5.11-8.63-10.15.34-1.22,1.1-2.39.61-3.76-.97-2.72.93-2.95,2.8-3.18Z"/>
    <path class="cls-40" d="m426.65,492.04c.21.83.16,1.57-.49,2.23-7.75,7.49-11.94,17.17-16.78,26.46-.59-1.59-2.72-.83-3.45-2.18,2.34-2.73,5.67-4.98,4.25-9.27-2.11-6.36-4.21-7.79-10.39-7.4-3.76-6.28,12-6.22-2.25-24.62-4.49-4.56,1.01-9.68,5.59-5.78,4.18,3.3,8.65,3.09,13.33,1.7,4.13-1.66,5.64-7.26,10.22-7.68,1.83,3.32,2.25,6.99,2.21,10.65,5.88,5.27.72,8.68-2.07,12.46-.84,1.14-1.37,2.22-.16,3.42Z"/>
    <path class="cls-76" d="m417.12,544c15.74-.04,31.47-.05,47.21-.13,2.18-.01,3.66.72,3.26,3.03-3.54,37.72-4.23,16.09-40.2,21.71-7.65-4.45,19.36-22.69-1.16-21.07-2.43-.39-10.99,1-9.11-3.54Z"/>
    <path class="cls-115" d="m397.3,506.63c-10.82,24.51-5.82,13.46-36.54,14.88,1.87-10.12,6.63-18.56,13.16-26.12,8.71-4.94,30.07-3.87,23.38,11.23Z"/>
    <path class="cls-176" d="m426.67,465.51c-5.83,6.71-11.6,12.63-20.84,7.7-3.84-2.39-12.39-2.97-9.22-9.39,2.72-4.37,7.29-7.14,9.92-11.63,2.49-4.91,8.48-6.32,11.6-10.5,19.67,11.09,23.74,3.7,8.55,23.83Z"/>
    <path class="cls-44" d="m313.49,490.14c-7.57,0-11.23-8.65-22.51-5.35-2.04.51-3.03-1.83-4.91-1.41-4.58-6.11-6.3-13.6-9.25-20.37-.2-2.24-2.9-4.3-1.66-6.28,1.82-2.92,3.71.96,5.87.75,3.19-.31,6.43-.46,9.67-.36,7.27-1.21,9.83,5.77,12.29,10.86,1.79,2.58,3.15,5.93,3.76,8.65,1.19,5.27,5.32,8.65,6.74,13.52Z"/>
    <path class="cls-54" d="m543.21,284.94c9.2.37,17.69,3.38,26.32,6.3,6.68,2.9,14.76,2.4,21.21,5.78.86,3.87-.87,7.11-4.84,6.82-14.07.12-27.87-1.71-41.74-4.49-5.15-1.29-8.01-5.78-12.3-8.24-.43-.25-.2-1.54.28-2.27,3.09-4.54,4.74-5.96,11.05-3.9Z"/>
    <path class="cls-96" d="m431.7,668.04c3.79,2.04,4.7,4.79,1.61,8.07-1.89,2.01-1.14,5.79-.81,6.18,4.15,4.93,2.2,11.68,5.33,16.73,1.54,2.49,2.91,5,3.59,7.86-2.59.69-4.18-.92-4.95-2.85-1.88-4.75-5.16-8.61-7.72-12.92-1.44-2.43-2.25-4.97-2.72-7.73-.23-1.35.96-3.89-1.54-3.86-2.44.03-5.05,1.08-4.97,4.24.52,10.73-7.14,21.24-1.45,31.52,4.15,6.98,5.33,16.11,11.17,22.05,3.07,2.8,2.8,6.21-.45,8.6-2.65-.79-2.67-4.54-5.61-5-3.98-9.01-23.7-22.4-17.9-31.07,19.25-6.08-2.01-30.78,18.89-36.44,2.98-1.1,5-3.61,7.53-5.37Z"/>
    <path class="cls-39" d="m481.36,588.61c5.37,1.11,1.51-6.33,4.38-8.85,1.11-1.56,1.11-3.76,3.99-1.29,3.01,2.58,2.16-2.66,4.67-2.72,5.87,3.29,1.98,9.31,4.54,13.92-1.45,11.48-8.01,21.7-8.85,33.26-.24,1.68.42,3.55-1.23,5.42-4.58-12.82-11.04-26.26-7.49-39.74Z"/>
    <path class="cls-100" d="m541.24,548.85c-.58-.51-2.7.12-1.84-1.06,7.95-12.47,20.42-13.83,33.61-17.63-4.17-2.35-7.88.75-11.53-.1,8.44-4.83,22.4-10,30.43-2.15,4.75,6.39,12.3,8.27,18.76,11.91,2.14,1.64,7.29,1.09,7.2,4.63-.28,1.52-1.7,1.2-2.74,1.43-12.05-7.72-25.76-12.43-40.3-11.11-3.9-.28-15.52,2.21-7.18,6.25,1.69.56,4.07.02,4.58,2.65-10.6.09-20.88,2.13-30.99,5.17Z"/>
    <path class="cls-144" d="m313.5,555.52c1.32-1.37,3.11-1.21,4.6-.9,7.34,1.52,15-.2,22.19,1.97,5.36,1.62,10.07-1.4,15.28-1.2,12.42.48,24.88.15,37.32.14,3.18,0,8.05.39,8.17-2.85-3.66-7.2-38.19-7.18-46.73-6.92-2.05.03-4.34.53-5.65-1.83,14.46-.09,29.04-.04,43.27.84,8.19,1.59,25.13-4.76,26.68,7.06.56,8.75-25.55,6.74-31.87,7.11-3.78-.49-7.19,1.1-10.83,1.52-6.53-.64-13.02-1.81-19.64-1.57-9.69,1.96-20.04,4.23-29.86,1.21-3.83-3.24-11.75,1.79-12.93-4.56Z"/>
    <path class="cls-140" d="m268.38,442.33c-6.49-5.72-7.07-20.35,2.3-22.93,4.3-1.18,8.9-1.42,12.32,2.79,15.32,9.95-.85,32.86-14.61,20.14Z"/>
    <path class="cls-63" d="m396.61,463.81c-2.79,5.85,16.9,11.26,21.31,10.51-13,5.56-15.22-5.37-20.47-2.08-1.38,1.53.55,3.52,1.87,4.88,4.7,5.22,9.98,16.15,2.25,20.96-3.33,1.81-.09,7.95-4.27,8.54,3.11-13.36-9.86-12.15-19.35-12.68.72-2.85,3.06-1.61,4.78-1.87,15.52.48-6.85-13.6,7.95-16.55,1.59,1.33-1.15,2.74.12,4.1.28.28,1.1.18,1.29-.16,1-1.78-.77-2.67-1.38-3.95,1.97-3.9,3.94-7.8,5.9-11.71Z"/>
    <path class="cls-107" d="m528.32,538.96c-7.23,1.41-20.74,7.48-22.64-3.81-.56-5.11-2.48-10.01,1.35-15.11,2.02-2.68,1.78-6.9-2.12-9.27,6.14.03,12.28.06,18.43.09-1.35,1.47-4.74,0-4.71,1.46.09,3.9-1,7.67-.71,11.53.93,8,.04,15.13,10.39,15.1Z"/>
    <path class="cls-157" d="m590.76,220.7c1.62,0,3.24,0,4.85.01,1.7,1.64,4.31.17,6.02,1.75,2.94.8,8.59-.51,9.16,2.92.32,2.49-3.26,4.99-6.32,6.18-6.9,5.2-15.93,7.28-24.39,8.79-5.96.37-11.24,3.91-17.3,3.86-2.98,1.04-5.98,1.82-9.13.83-2.37-1.99-.4-2.73,1.11-3.13,10.08-3.91,29.18-5.79,33.51-16.78.47-1.7.52-3.59,2.49-4.43Z"/>
    <path class="cls-110" d="m376.97,559.42c1.39-1.25,3.17-1.86,4.89-1.83,10.13.18,20.19-.23,30.19-1.99,9.06.16,4.99-7.97-.47-9.8-4.37-.83-27.91,1.92-27.77-1.8,11.1,0,22.2,0,33.3,0,.63,2.36,2.6,1.45,4.03,1.53,14.92.45,18.55-1.94,8.85,13.29-1.17,1.82-2.71,2.96-4.76,2.79-11.95-.94-23.95.2-35.9-.7-4.13-.44-8.61,1.93-12.37-1.51Z"/>
    <path class="cls-34" d="m282.29,389.52c3.45-.22,4.43,3.97,7.59,4.27,3.13,1.69,4.54,4.99,4.18,8.44-1.02,1.49-2.24,2.18-3.92.94-8.84-1.26-17.63-2.1-25.83,2.92-1.51-9.33,8.33-20.88,17.98-16.57Z"/>
    <path class="cls-75" d="m284.15,643.44c-4.17-.78-6.15,3.72-3,6.44,4.27,6.08,9.08,2.16,12.99,8.95,4.84,4.49,11.31,5.57,17.16,7.95,3.24-.3,3.03,2.71.08,3.1-4.07,2.84-7.79-2.72-11.55-3.9-12.43-6.93-25.02-14.13-34.23-25.28-1.8-3.14-.01-9.91,4.48-7.33,2.81,2.54,16.47,5.63,14.06,10.07Z"/>
    <path class="cls-57" d="m589.9,314.25c-18.95,2.47-37.39-7.6-53.92-15.37,5.07-4.6,30.91,7.41,38.67,7.17,4.6.85,22.1-.12,15.24,8.19Z"/>
    <path class="cls-113" d="m397.43,746.01c-4.8-1.15-7.43-5.3-11.07-8.04-11.47-7.71-24.76-13.35-32.82-25.24,12.59.88,22.51,6.7,29.1,17.27,4,6.46,10.54,9.99,14.79,16.01Z"/>
    <path class="cls-4" d="m589.9,314.25c1.65-3.22.82-4.36-2.93-4.93-7.55-1.68-23.24-1.35-28.43-6.61,12.53-2.91,28.81,6.79,39.16-3.13,4.53,2.14,9.51,3.62,12.24,9.01-6.09,3.47-13.04,4.64-20.04,5.66Z"/>
    <path class="cls-84" d="m473.58,644.42c-3.03,2.14-5.99,3.83-8.73-.46-.7-1.1-1.86-1.18-2.99-.48-5.85,2.05,1.03,15.7,1.01,20.46-9.58-8.28-5.75-18.02-11.04-13.82,2.11-7.44,8.23-12.59,11.22-19.53.85-1.38,1.1-3.11,3.42-3.11,1.3,5.9,5.39,10.91,7.11,16.94Z"/>
    <path class="cls-114" d="m300.92,666.45c16.21,6.02,32.4,11.66,50.08,10.03,2.46.45,11.46-1.33,11.69,1.55-7.33,5.07-33.76,1.87-43.59,1.03-4.14-8.64-11.17.16-18.19-12.61Z"/>
    <path class="cls-72" d="m597.7,299.58c4.77,9.72-27.17,4.61-31.87,3.36-7.67.22-14.8-1.69-22.18-3.69-6.79-.24-15.74-.36-11.49-10.4,12.45,14.5,34.97,11.1,52.16,13.67,3.68.65,6.2-1.42,6.43-5.5,2.35.79,4.77,1.37,6.95,2.56Z"/>
    <path class="cls-55" d="m562.2,442.12c-2.16-.1-9.64.96-6.45-2.96,5.93-5.79,8.44-13.52,11.75-20.79.59-1.31.63-3.31,2.37-3.12,3.37.98.03,19.01-.59,22.57-.94,4.53-4.54,3.21-7.07,4.31Z"/>
    <path class="cls-171" d="m572.23,543.67c-3.44-1.76-9.85.35-9.67-5.58.08-7.84,29.23-5.71,33.18-1.19-8.84,1.39-4.24-3.71-17.08,1.97-2.31.62-.76,2.77-.14,4.08.5,1.06,2.52.89,2.53,2.61-3.2.59-5.6-2.57-8.82-1.89Z"/>
    <path class="cls-143" d="m515.61,246.06c1.71-.11,3.36.83,4.7-1.75,2.17-5.91,10.16-2.13,11.86-8.07,7.66,16.47.38,12.56-9.29,21.44-1.04-.83.33-2.97-1.43-3.13-1.23-.11-.75,1.49-1.09,2.29-3.5-2.75-5.01-6.38-4.76-10.78Z"/>
    <path class="cls-67" d="m515.61,246.06c1.79,3.51,3.84,6.89,4.76,10.78-.76,1.78,1.5,3.03.84,4.79-1.68,2.67-.14,5.67-.89,8.43-3.45-1.68-8.01,1-8.56,5.06-.23,1.68.57,3.59-1.1,4.94-2.05-2.19-1.61-5.01-1.24-7.43,1.26-3.27-.9-36.72,6.2-26.58Z"/>
    <path class="cls-80" d="m268.38,442.33c13.34,6.26,22.3-2.9,18.75-16.48,6.23,3.1,6.22,11.87,5.83,17.83-1.66,10.26-23.34,9.73-24.58-1.34Z"/>
    <path class="cls-132" d="m445.31,566.29c6.52-1.42,12.01,3.02,18.51,1.88-.81,5.62-.14,11.48-2.71,16.82-2.14-4.3-6.06-1.05-8.96-2.12-1.13-2.54.92-4.56,1.12-6.9,1.66-10.25-9.6-2.85-7.96-9.68Z"/>
    <path class="cls-116" d="m295.89,457.91c-5.9,1.92-15.7,1.38-20.37-1.43.7,2.71,2.82,4.73,1.82,7.33-3.92-3.37-3.47-8.43-4.94-12.75,3.28-.37,4.64,2.88,7.22,3.7-4.32-8.23,11.93,2.94,13.46-12.13.17-.66.44-1.18,1.05-1.51,1.28,5.55.01,11.28,1.76,16.79Z"/>
    <path class="cls-149" d="m585.91,265.45c2.73.65,9.18-1.5,9.92,1.56,2.16,4.17-2.97,16.39-7.96,9.29,1.99-2.18,5.19-2.61,3.92-6.35-3.23-4.67-10.35.06-14.8.03,3.01,2.13,8.12.95,9.07,6.11-7.68-.83-14.72-3.85-22.58-5.85,1.74-2.57,5.06-1.11,5.89-3.67,5.58.55,11.01-1.11,16.55-1.11Z"/>
    <path class="cls-90" d="m532.79,479.32c.71,16.63-17.99,13.76-12.05,8.39,3.12-2.68,5.42-6.03,7.86-9.27,1.55-4.1,4.5-3.44,4.19.88Z"/>
    <path class="cls-152" d="m534.45,249.75c-.1-.92-.2-1.84-.29-2.76,9.01-4.68,18.89-2.79,28.63-2.78-.19.43-.34,1.22-.58,1.25-9.25,1.02-18.32,7.52-27.75,4.28Z"/>
    <path class="cls-145" d="m294.12,441.12c-.45,4.58.77,11.21-5.82,10.99-3.04.09-6.07,1.09-9.13.1-2.27.17-4.72.54-3.61-3.16,13.16-.19,17.28-.36,16.62-14.9,3.41,1.56,1.44,4.61,1.93,6.97Z"/>
    <path class="cls-111" d="m590.88,363.79c.08,2.73-5.37,7.22-7.35,6.85-1.09-.21-1.43-1.09-.95-1.72,2.65-2.47.95-11.09,4.35-11.4,2.85.03,2.95,4.75,3.95,6.27Z"/>
    <path class="cls-38" d="m513.54,617.96c0,11.82.22,23.62,3.11,35.18-5.19-8.99-5.32-18.87-4.87-28.79.1-2.17-1.38-4.98,1.76-6.39Z"/>
    <path class="cls-62" d="m378.79,692.81c3.69-3.63,8.48-2.66,12.74-3.29,2.25-.33,2.08,1.67,1.06,2.95-3.74,5.15-9,1.32-13.8.34Z"/>
    <path class="cls-179" d="m291.16,372.9c5.26.22,13.18,6.1,14.54,13.72-4.93-2-5.16-11.48-9.25-7.51-1.38-2.39-5.67-2.3-5.29-6.2Z"/>
    <path class="cls-6" d="m524.51,328.09c-4.55.82-3.36-2.81-2.88-4.82-.81-2.94,10.77-8.11,9.4-3.9-4.82.93-3.91,6.14-6.53,8.72Z"/>
    <path class="cls-119" d="m275.57,449.05c.3,2.09,2.53,1.96,3.61,3.16.28,2.26,3.59,2.18,3.6,5.13-3.98-1.51-7.54-3.25-10.38-6.28-3.04-.87-2.08-3.72-2.83-5.72,2.91-.23,3.55,3.2,6,3.71Z"/>
    <path class="cls-9" d="m405.28,709.85c-1.84,6.26,4.73,9.84,5.73,15.66-5.27-2.56-12.76-11.24-5.73-15.66Z"/>
    <path class="cls-123" d="m422.81,767.56c-1.82,1.61-2.91,4.12-5.87,3.13-2.7-.79.16-3.54-1.69-4.6,1.54-1.14.19-3.33,1.64-4.51,1.95,2.02,4.72,3.22,5.92,5.98Z"/>
    <path class="cls-56" d="m303.7,695.35c.02-1.67.05-3.34.07-5.01,4.45-.35,7.86,2.65,12,3.58-3.95,2.05-8.02,1.68-12.08,1.43Z"/>
    <path class="cls-153" d="m548.91,491.07c-.44.63-1.03.96-1.82.87-.02-6.14-.1-12.28,0-18.41.01-.93-.98-2.8,1.36-2.73.15,6.76.3,13.52.46,20.27Z"/>
    <path class="cls-78" d="m457.04,796.88c4.54-.06,9.09-.33,13.63-.16-4.12.83-11.55,6.47-13.63.16Z"/>
    <path class="cls-179" d="m294.11,400.26c-2.14-1.68-3.51-3.86-4.22-6.47,4.41-3.87,6.75,3.22,4.22,6.47Z"/>
    <path class="cls-72" d="m543.21,284.94c-3.7.11-7.51-.17-10.35,2.94.49-1.49.97-2.99,1.46-4.48,3,.33,6.44-1.94,8.89,1.54Z"/>
    <path class="cls-159" d="m242.07,387.69c2.96-1.17,5.94-.96,8.92-.1.46,3.88-6.28,1.19-8.62,1.77-.71-.45-.72-1.02-.3-1.67Z"/>
    <path class="cls-30" d="m159.21,452.24c-2.92,2.47-5.83,3.15-8.75,0,2.92,0,5.83,0,8.75,0Z"/>
    <path class="cls-151" d="m282.29,389.52c-2.68-.05-5.36-.1-8.04-.15,2.74-3.18,5.41-2.7,8.04.15Z"/>
    <path class="cls-88" d="m351.72,711.63c-2.37-.01-4.73-.02-7.1-.03-.45-.65-.43-1.23.27-1.71,2.18.21,6.5-1.57,6.83,1.74Z"/>
    <path class="cls-23" d="m290.15,403.18c1.31-.31,2.61-.63,3.92-.94,3.29,3.26-3.51,5.02-3.92.94Z"/>
    <path class="cls-58" d="m585.97,387.67c-1.09,3-3.74,1.53-5.71,2,.19-3.58,3.29-1.2,4.69-2.29.34.1.68.19,1.02.29Z"/>
    <path class="cls-179" d="m361.37,409.93c-.98.05-1.96.1-2.94.14-2.09-3.98,5.64-3.75,2.94-.14Z"/>
    <path class="cls-12" d="m242.07,387.69c.1.56.2,1.12.3,1.67-1.94.18-4.03.84-5.13-1.62,1.61-.02,3.22-.04,4.83-.05Z"/>
    <path class="cls-60" d="m428.79,745.92c3.99-9-6.08-7.96-5.72-15.94.13-2.06-1.55-3.09-2.59-4.44-3.79-3.42-.81-8.01-4.96-11.22-5.08-8.91,3.65-19.86,2.37-29.62-.78-6.71,10.59-10.23,9.86-5.61-1.78,6.98,2.62,11.92,6.12,16.99,3.1,3.42,2.86,8.87,7.54,10.79,32.41,40.84,92.56,55.24,140.86,36.7,42.93-19.58,82.39-61.73,91.57-108.92.86-.35,1.8-.12,2.21.52,10.08,12.11,15.78,19.81,6.97,35.93-9.62,18.59-18.16,38.56-32.64,54.02-3.47,3.44-6.79,6.61-8.78,11.06-13.61,15.1-31.79,25.24-49.75,34.19-16.12,6.58-33.15,13.64-50.93,13.92-40.07,1.09-82.63-10.23-112.14-38.37Z"/>
    <path class="cls-94" d="m766.35,724.41c-11.49,19.35-30.48,31.31-48.63,43.62-15.07,9.84-32.38,14.9-49.77,18.95-9.05,1.5-18.19,3.01-27.28,1.28-4.94-2.15-23.95-.39-21.63-8.15,2.04-4.95,7.28-5.77,11.13-8.15,6.21-3.83,11.43-8.83,17.3-13.02,3.62,1.73,8.23-5.74,14.13-2.59,12.15,4.54,24.03-2.06,35.98-3.84,28.31-13.13,52.02-34.68,71.94-58.35,5.3-6.58,9.81,1.22,5.49,6.17-1.36,2.15-2.13,4.09-1.68,6.74,1.81,8.21-7.04,12.03-6.97,17.35Z"/>
    <path class="cls-135" d="m690.39,719.67c36.63-6.42,67.27-33.65,84.33-66.04,2.92-7.02,7.15-13.48,10.59-20.29,2.87-3.25,4.05-17.08,9.68-13.79,1.89,32.07-18.14,59.28-37.85,82.49-9.33,9.89-22.16,15.48-33.53,22.57-1.68,1-3.27,2.1-5.3,2.21-5.19-.5-9.79,1.72-14.55,3.16-4.45,1.8-19.24-5.18-13.38-10.31Z"/>
    <path class="cls-93" d="m641.61,736.18c-.44-3.88.71-8.1,3.85-9.46,13.41-7.37,16.72-22.93,24.71-34.64,5-6.64,7.14-14.59,11.83-21.31,4.39-6.68,4.74-15.82,2.53-23.16-6.85-1.64-5.3-10.17-10.68-12.97,6.45-23.26,4.53-47.47,4.82-71.31-2.63-6.06,5.2-7.6,7.98-2.8.67.76-.15,4.25,2.76,2,18.79,60.01-1.81,131.07-47.8,173.65Z"/>
    <path class="cls-37" d="m718.65,725.38c11.42-6.64,23.52-12.1,33.6-20.64,6.9-3.55,10.69-16.46,17.13-18.47,1.24,1.09.94,2.51.13,3.41-6.3,11.59-2.52,14.3-15.57,24.18-11.86,9.49-62.92,60.73-71.29,30.51-.94-5.31-4.3-9.96-10-6.15-1.11.66-2.27,1.61-3.53.86-1.19-.71-.84-1.92-.22-2.96,3.22-5.4,8.92-12.38,15-6.09,7.76,5.52,25.78-2.69,34.74-4.65Z"/>
    <path class="cls-3" d="m821.42,539.86c-9.39,3.57-12.91,12.98-17.93,20.6-.4.31-.92.58-1.33.37-7.43-3.86-13.35-1.35-18.54,4.32-1.53,2.56-5.95.98-4.55-2.06,9.42-20.01,28.84-32.93,50.02-37.66,1.38-.06,3.1-.68,3.79,1.02.04,4.09-7.54,5.14-7.98,10.1-.46,1.4-2.24,2.47-3.47,3.3Z"/>
    <path class="cls-17" d="m593,794.63c-3.7,0-13.71.35-12.79-5,.12-2.22,1.73-3.91,3.86-3.53,8.7,2.1,0-10.26,9.68-8.26,3.49.7,7.98,1.48,7.04-4.92-.81-3.04,8.16-2.78,12.11-8.2,2.91-2.7,7.04-3.6,10.48-5.61,1.55-.91,4.75,2.71,7.79,1.17,1.74,1.03,3.79-1.99,5.2.54.43.84-.48,1.38-1.08,1.94-2.58,2.55-3.72,1.16-6.5.24.73,4.66-2.08,9.31-6.48,10.34-4.27,1.08-8.6-9.42-9.96-.9-1.31,7.45-1.23,7.49,4.82,7.67,1.08,4.53-3.4,5.75-5.12,8.62-2.53-.09-5.1-1.17-7.55.39-3.43,2.79-9.57,1.13-11.49,5.52Z"/>
    <path class="cls-1" d="m668.9,736.12c-.01,2.56.84,2.73,2.79,1.23,17.26-10.17,5.78,17.8,26.57,16.45-12.02,1.51-24.54,8.84-36.63,4.04-5.66-3.59-11.71,6.26-14.17,1.1,8.58-6.12,14.82-14.77,21.44-22.82Z"/>
    <path class="cls-45" d="m765.61,700.07c-3.82-6.11,3.04-8.6,3.77-13.8,0,0,0,.05,0,.05,7-8.86,11.62-19.79,16.8-29.82,2-4.2,4.26-9.01,4.62-13.98.56-7.83,4.19-15.07,4.19-22.98,2.96,22.76-.94,45.89-9,66.81-4.57.55-7.92,3.56-11.65,5.8-4.29,1.12-4.61,6.61-8.72,7.92Z"/>
    <path class="cls-117" d="m799.57,569.24c.09,3.52-2.94,6.17-2.69,9.73.38.3.19.74-.13.81-2.16,4.83-.35,12.86-5.75,15.71-3.15-4.58-8.36-7.72-9.6-13.66.36-3.53-6.69-15,.86-12.69,6.37,1.42,12.43-7.73,17.32.09Z"/>
    <path class="cls-101" d="m718.65,725.38c-6.41,4.71-14.04,5.61-21.55,6.83-4.69.49-9.47,4.57-13.39-.27-2.61-2.94-5.45-4.62-9.09-1.55-.27-.34-.54-.67-.82-1.01,3.29-7.07,8.04-11.63,16.58-9.71-1.5,1.99.04,3.49,1.7,4.66,7.72,9.69,17.27.35,26.56,1.05Z"/>
    <path class="cls-118" d="m799.57,569.24c-8.76-4.94-9.34,2.16-15.76,1.81-9.19-5.74.66,5.19-2.42,10.79-3.76-5.88-5.33-12.03-2.33-18.75.96,2.96,2.28,3.5,3.81.41,2.99-6.01,9.61-4.4,14.35-6.72,2.41-1.18,3.85,2.86,6.26,3.68.14-.14.3-.16.48-.05.52,2.23-1.31,3.29-2.34,4.75-1.44.98-1.09,2.86-2.05,4.09Z"/>
    <path class="cls-31" d="m689.41,562.54v5.18c-2.75-1.34-2.57-3.76-3.52-5.5-1.58-5.01-7.88-4.6-7.23,1.13-1.81-2.04-.92-4.68-1.41-7.01-2.87-8.42-5.86-17.5-2.33-26.36,3.99,1.9,4.15,6.3,5.79,9.56,3.67,7.32,6.58,15.03,8.69,22.99Z"/>
    <path class="cls-109" d="m774.34,692.15c2.83-4.05,5.53-8.37,11.65-5.8-4.3,13.65-10.48,26.97-19.64,38.06-4.29-5.61,8.9-7.45,4.76-18.75-1.45-5.45,7.58-6.85,3.23-13.51Z"/>
    <path class="cls-161" d="m611.2,787.94c1.94-2.64,4.7-4.67,5.96-7.83.62,0,1.25,0,1.87,0,.64,1.96,1.88,3.72,3.93,3.72,6.83-.01,13.28,2.08,19.88,3.29,8.4,1.55,16.74-.44,25.1-.14-7.58,2.84-15.48,3.17-23.44,3-3.01,1.17-32.61-7.22-23.88,2.18.66.63.91,1.7,1.34,2.56-.98-.03-1.95-.06-2.92-.09-2.29-2.58-9.22-1.7-7.84-6.68Z"/>
    <path class="cls-142" d="m822.14,538.83c.07-2.23,2.32-3.03,3.17-4.84-.48-1.84-2.87-.11-3.62-2.35,4.54.57,7.44-2.14,10.36-4.87-.79-.89-2.37-.04-2.96-1.34,2.96-1.93,6.57-1.03,9.71-2.19,4.61-.87,4.24,2.01,3.76,4.98-6.28,2.61-13.25,12.58-20.42,10.61Z"/>
    <path class="cls-86" d="m593,794.63c-.85-.85-2.73-.14-3.02-2.28,6.18-1.42,23.74-10.77,21.22,2.22-6.07.02-12.13.04-18.2.07Z"/>
    <path class="cls-35" d="m668.78,485.17c-4.91-.85-12.34-4.82-13.31-9.51.46-1.59,1.85-.96,2.85-1,8.06-.34,10.3,1.79,10.47,10.51Z"/>
    <path class="cls-77" d="m709.24,656.53c-.55-5.68,3.4-9.78,4.25-14.77,3-5.52,9.75,10.52-4.25,14.77Z"/>
    <path class="cls-17" d="m597.11,807.09c-3.62-1.33-9.13.58-10.85-4.24-1.12-1.76.8-3.92,2.64-2.55,3.19.75,7.51,5.73,10.31,2.47,1.05-1.43,3.35-1.98,4.2-.57,1.89,2.3-4.29,5.38-6.3,4.9Z"/>
    <path class="cls-163" d="m710.06,562.77c-1.23-3.84,1.3-4.68,3.39-1.33,2.92,2.42,5.34,9.5.26,10.79-1.23.04-1.62-.66-1.86-1.73-.58-2.58-3.08-4.65-1.79-7.73Z"/>
    <path class="cls-17" d="m527.47,787.93c3.47.74,13.88-1.86,15,1.75.12,2.17-1.58,1.38-2.77,1.26-1.61-.16-2.09.37-2.18,2.17-.14,2.64-3.23,1.8-3.38,1.09-.83-3.84-4-4.31-6.67-6.26Z"/>
    <path class="cls-165" d="m606.35,446.25c-1.28-.34-2.56-.69-3.84-1.03-.68-1.22-4.37.56-2.86-2.85,6.19.33,12.78-2.94,14.27,5.17.26.57-.96.43-1.55.46-1.72-1.57-4.32-.1-6.02-1.75Z"/>
    <path class="cls-41" d="m611.2,794.57c-.62-3.95-2.22-6.91-6.87-6.78,2.31-.94,4.61-1.74,6.86.15.71,4.77,8.4,1.86,7.84,6.68-2.61-.02-5.22-.04-7.83-.05Z"/>
    <path class="cls-17" d="m466.63,806.59c-3.13,1.2-7.7,3.3-9.96.81-.18-.98.59-1.57,1.35-1.66,2.73-.33,5.55-1.34,8.61.85Z"/>
    <path class="cls-13" d="m629.04,445.22c3.43,4.64-2.75,11.65,6.08,10.87-.99,2.52-3.23,1.84-4.86,1.44-2.71-1.48-.68-9.26-1.22-12.3Z"/>
    <path class="cls-134" d="m827.81,514.12c-.57.73-.72,1.13-.93,1.17-2.22.38-3.96,3.12-6.58,1.37-1.75-2.32,5.4-3.57,7.51-2.54Z"/>
    <path class="cls-17" d="m476.21,806.52c-2.96,3.06-5.23.98-8.23-.02,3.19-3.05,5.46-1.16,8.23.02Z"/>
    <path class="cls-17" d="m709.03,793.81c1.01,2.35,4.45.04,5.27,2.75-1.7.3-9.98.24-5.27-2.75Z"/>
    <path class="cls-8" d="m606.35,446.25c2.07.37,4.76-1.39,6.02,1.75-2.16-.06-4.77,1.44-6.02-1.75Z"/>
    <path class="cls-17" d="m446.97,798.94c2.49-1.66,3.95-1.24,6.15-.71-2.21,2-3.67,1.32-6.15.71Z"/>
    <path class="cls-156" d="m599.65,442.36c-.12,2.03,2.24,1.57,2.86,2.85-2.29.26-4.23-.62-6.34-1.88,1.08-1.09,2.27-1.06,3.47-.97Z"/>
    <path class="cls-17" d="m574.88,394c.02,2.63-3.08,2.29-2.53.02.11-2.41,1.92-1.76,2.53-.02Z"/>
    <path class="cls-17" d="m531.33,784.3c3.2,0,6.4,0,9.6,0-3.2,1.1-6.4,1.09-9.6,0Z"/>
    <path class="cls-15" d="m720.51,434.3c.45-12.11,20.48.12,18.7-10.83.92-8.23-4.41-21.68,9.44-20.22,10.47-.36,6.72,11.7,7.23,18.37-1.08,6.94,7.13,4.14,11.45,4.67,5.7-.83,7.69,3.32,9.68,7.14,1.47,2.82-2.81,10.16-6.06,11.17-18.26,2.05-13.43-5.23-15.19,15.36-.46,5.83-2.48,7.91-7.34,7.83-7.08-.13-8.86-1.71-9.23-8.04.81-13.78.21-15.9-14.05-14.57-5.28-.08-6.56-6.95-4.62-10.88Z"/>
    <path class="cls-22" d="m720.51,434.3c.07,2.64.14,5.27.21,7.91-2.66-2.57-3.57-5.18-.21-7.91Z"/>
    <path class="cls-74" d="m824.15,421.75c1.45.72,2.48,2.07,1.77,3.44-.72,1.38-1.65-.92-2.71-.51-.03-1.09-.09-2.18.94-2.93Z"/>
    <path class="cls-16" d="m509.81,280.3c-6.32,26.73-30.68,43.57-55.74,49.12-7.46.11-13.72,2.89-19.47,7.3-8.8,0-17.6,0-26.4,0-2.11-4.53,5.34-4.93,4.7-9.49,15.43-6.37,32.47-11.19,42.44-25.84,8.14-9.03-10.28-21.69-14.17-9.55-3.23,12.41-9.3,5.79-19.52,12.92-8.6,3.27-28.7,5.72-32.79-4.46-.44-1.5-1.73-2.28-2.88-3.17-15.1-11.13,20.06-25.47,28.74-27.3,3.4-.42,5.41-3.02,8.14-4.46,1.99,1.31,1.11,4.38,3.57,5.55,9.57,4.44,11.88-9.09,18.74-12.73,8.21-5.1,17.7-3.25,23.21,4.69,2.9,4.1,4.65,9.79,10.79,8.88,9.75-.62,9.24-14.23,4.92-20.38-8.78-15.45-27.05-15.31-25.74-21.08,3.4-7.72,20.18-7.96,27.45-6.39,4.19.17,7.92-3.79,12.07-.78,1.3,10.8-21.86-.05-24.92,6.81-.74,2.73,3.23,3.54,5.44,4.46,6.24,2.58,10.4,8.32,16.77,10.67,3.02,1.64,2.24,7.03,7,6.09,12.68,2.09,7.32,20.12,7.65,29.18Z"/>
    <path class="cls-176" d="m422.68,265.54c-.94,6.51-6.83,5.42-10.88,6.62-2.47.73-4.7,1.19-6.92,2.81-5.34,4.28-12.66,4.43-18.1,8.64-5.99,4.65-6.03,4.59-11.41-.87-9.72-14.65-24.27,1.21-19.29,12.55,5.2,8.1-1.23,17.65,5.47,25.49,3.22,4.52-4.22,10.79-8.89,8.2-17.76-7.19-22.45-32.03-17.57-48.65,1.63-8.51,7.92-13.49,14.92-17.5,8.89-5.1,18.5-2.36,27.86-2.07,1.39,1.43,3.65.35,5.05,1.74,31.89,4.32,29.14-42.02,65.33-51.59,13.25-6.83,27.03-3.39,41.08-3.01,11.03,4.34,5.49,17.81-5.03,16.34-11.22-.85-33.02.37-37.57,12.64-.27,1.75-1.28,2.93-2.88,3.61-9.2,3.93-14.57,11.29-18.19,20.25-.7,1.74-.94,3.84-2.97,4.79Z"/>
    <path class="cls-166" d="m509.81,280.3c-1.87-7.94,3.91-31.43-10.66-26.61-1.5.48-1.83-.21-1.96-1.16-2.72-9.35-18.7-14.45-26.18-20.47-6.3-5.3,9.23-6.45,12.65-6,4.71.53,10.44,2.92,14.37-2.5.79-3.51,2.49-6.75.87-10.72-1.04-2.56,3.04-6.58,5.69-5.59,2.72,1.75,12.42-.44,11.01,4.26-2.7,2.9-3.14,5.56-.8,9.22,1.55,2.42-2.32,3.67-3.11,5.81-2.4,6.13-3.81,12.14,2.11,17.25-3.01,11.87-2.53,24.13-3.18,36.27-.27.1-.55.17-.83.23Z"/>
    <path class="cls-127" d="m502.86,202.95c2.75-3.68,6.58-6.16,10.72-7.54,25.27-8.71,50.38-27.8,54.92-55.64.44-3.11,1.04-7.5,5.16-7.21,5.92.84,4.05,10.58,3.51,14.82-6.83,23.02-25.71,41.74-45.62,54-6.31-.33-9.77,5.61-15.38,7.36-4.66.77-12.74.18-13.31-5.79Z"/>
    <path class="cls-104" d="m552.73,244.05c-6.08,1.69-12.2,3.09-18.57,2.94-1.31-3.46-2.59-6.93-1.99-10.75,18.03-8.58,38.13-18.72,58.59-15.54-1.63,1.91.05,4.38-1.21,6.48-8.39,11.31-24.75,12.29-36.83,16.87Z"/>
    <path class="cls-147" d="m507.64,364.16c-1.29,17.2-9.18,33.63-18.3,48.05-1.23-7.01-14.46-12.49-9.86-19.38,3.18-5.51,4.37-11.75,6.66-17.58,1.9-7.88-1.2-17.97,5.98-23.74,3.54,5.45,8.92,11.46,15.52,12.65Z"/>
    <path class="cls-106" d="m352.65,328.98c18.62-4.29-1.42-9.05,4.85-26.47,2.39-.22,3.36,1.65,4.53,3.14,4.97,6.32,11.05,11.37,17.74,15.75,11.25,8.36,22.63,2.07,33.14,6.53,5.13,4.2-4.96,4.45-4.7,8.78-18.43-1.36-40.2,5.38-55.56-7.74Z"/>
    <path class="cls-42" d="m448.24,436.39c-5.45-1.08-8.17-6.62-13.96-7.14-9.4-1.34,10.65-13.51,12.04-17.2,8.26-9.66,8.18-3.93,17.61-1.69,9,4.47-9.28,18.64-11.88,23.9-.84,1.15-2.71,1.55-3.81,2.13Z"/>
    <path class="cls-126" d="m502.86,202.95c3.52,3.67,7.65,5.78,12.89,5.14.4.63.39,1.24-.13,1.81-3.6-.38-7.32.88-10.8-1.52-1.58-1.1-2.78,1.08-3.92,2.12-4.29,3.6,6.47,5.15-2.85,13.06-7.65.71-14.51,2.86-22.31.84-5.39-.5-9.47,3.14-14.47,3.65-1.13.11-2.21,1.46-2.01,2.98.17,1.35,1.4,1.78,2.47,2.05,14.09,3.86,31.05,17.34,25.92,33.46-7.52-14.11-16.87-30.2-35.4-27.99-2.42.16-4.9.66-6.93-1.28,1.34-15.38,28.71-13.66,39.73-13.74,10.46-.54,11.19-10.32,4.27-15.62,5.24.34,9.33-2.46,13.54-4.95Z"/>
    <path class="cls-10" d="m487.48,376.04c-2.19,7.44-4.41,14.86-8.96,21.31-5.32.39-9.59-2.96-14.48-4.12-1.78-.42-1.51-2.03-.44-3.04,7.13-6.74,9.65-16.4,15.28-24.1,3.78-6.87-2.43-12.37,9.27-12.84,1.24-.46,2.21-.43,2.25,1.26-1.22,2.43-1.15,5.55-3.53,7.28-2.79,1.08,2.73,6.19.61,14.26Z"/>
    <path class="cls-108" d="m509.69,161.11c-3.15,3.7-3.67,8.72-6.61,12.63-5.34,6.62-12.29,16.52-21.97,13.76-1.64-.25-1.42-1.79-.25-2.47,11.95-7.03,16.17-19.54,22.01-30.89,3.15-1.79,2.69-8.9,8.03-7.38,5.65,3.54-2.69,9.47-1.23,14.36Z"/>
    <path class="cls-61" d="m515.61,209.9c.04-.6.09-1.21.13-1.81,0,0-.04-.03-.04-.03,8.54-3.58,16.28-8.66,24.4-12.92,13.79-.63-13.69,21.92-17.16,23.63-3.9,2.42-7.57,5.05-11.22,7.77-1.16-2.82,4.34-3.54,1.73-6-5.51-4.9-1.34-6.7,2.16-10.64Z"/>
    <path class="cls-20" d="m434.61,336.73c1.76-10.43,24.61-8.9,33.17-11.55-1.05,2.37.58,3.79,2.29,3.57,4.91-.64,7.68,3.02,11.32,4.9-15.38,4.36-31.1,3.44-46.79,3.08Z"/>
    <path class="cls-21" d="m543.03,199.9c.18-4.68.01-4.76-6.19-2.83,16.62-13.88,31.62-29.43,40.33-49.68-.87,21.93-19.08,38.54-34.14,52.51Z"/>
    <path class="cls-168" d="m460.99,174.9c1.73-4.07,3.72-7.81,8-9.95,2.37-1.18,1.14-4.43,3.5-6.51,6.06-5.35,9.88-12.09,12.47-20.23,2.13-6.71,4.2-13.32,5.36-20.25.31-1.86,1.95-2.51,3.29-3.32,4.66-1.13,6.13-8.21,10.27-5.34.82,1.32-1.39,1.63-.95,2.83-22.21,9.63-4.3,44.09-41.93,62.78Z"/>
    <path class="cls-32" d="m346.71,237.22c30.85-11.17,40.58,7.56,45.81-4.63.93-2.51,3.06-3.56,4.56-5.17,2.91-3.11,3.02-8.67,8.29-9.66.43,4.74-4.19,6.75-5.74,10.53-1.16,2.08-8.18,17.14-10.61,14.19-9.92-3.95-20.85-6.66-31.56-5.46-3.06-.14-13.7,6.06-14.66,2.15,1.56-.14,3.51.49,3.91-1.95Z"/>
    <path class="cls-124" d="m509.69,161.11c-4.98-1.16,5-9.11.73-14.15-.53,1.15-1.16,2.68-1.23,2.65-3.91-1.42-2.84,1.83-3.59,3.55-.32.74-.59,4.22-2.72.98,2.96-5.85,2.86-12.33,3.8-18.59.29-1.93.27-4.03,3.22-3.74,10.71,1.08,2.48,23.24-.21,29.31Z"/>
    <path class="cls-82" d="m365.25,358.47c1.2,6.68-8.47,2.53-10.91.25-2.26-1.88-4.06-5.74-8.18-2.03-1.53,1.37-2.33-2.26-4.16-2.45.44-2.99-2.92-4.38-3-7.15,8.57,4.42,16.43,10.63,26.26,11.39Z"/>
    <path class="cls-32" d="m411.21,211.96c1.04-2.65-1.67-5.27-.06-7.93,3.05,1.33,5.69-1.07,8.61-.95-1.82,3.95-6.4,5.24-8.55,8.87Z"/>
    <path class="cls-120" d="m420.92,201.9c-.51-4.37.07-7.79,5.84-6.65,2.07,3.47-3.49,3.69-4.83,5.94-.13.54-.4.87-1.01.72Z"/>
    <path class="cls-168" d="m433.67,194.48c.89-2.42,4.65-5.56,6.91-2.99-1.19,3.58-4.55,2.13-6.91,2.99Z"/>
    <path class="cls-30" d="m357.46,237.02c4.22-1.31,8.44-1.33,12.65,0-4.22,0-8.44,0-12.65,0Z"/>
    <path class="cls-131" d="m601.64,222.47c-2.17-.01-4.65,1.01-6.02-1.75,2.18-.01,4.62-.92,6.02,1.75Z"/>
    <path class="cls-168" d="m506.96,110.36c-.9-.71-.59-2.32-.13-2.03,2.12,1.31,5.02.09,6.75,2.24-2.21-.07-4.42-.14-6.62-.21Z"/>
    <path class="cls-105" d="m490.4,354.51c-.37-1.09-1.41-1.01-2.25-1.26.32-2.86,2.49-1.53,3.97-1.74,0,1.32.47,2.93-1.72,3Z"/>
    <path class="cls-136" d="m382.91,262.5c-1.96.22-4.02.71-5.05-1.74,1.92-.11,4.06-.83,5.05,1.74Z"/>
    <path class="cls-30" d="m689.47,252.76c1.5,1.99,3,3.99,4.5,5.98-3.5.8-8.35-3.14-4.5-5.98Z"/>
    <path class="cls-30" d="m262.09,291.92c-.22-2.32.69-4.86-1.34-6.83.98-.9,1.97-.8,2.96-.02-.21,2.36,1.84,5.25-1.62,6.84Z"/>
    <path class="cls-120" d="m263.71,285.08c-1.95.04-3.9,0-5.84-.13.37-1.11.04-2.49,1.25-3.28,1.06,1.77,4.23.69,4.59,3.41Z"/>
    <path class="cls-120" d="m440.4,191.28c-1.29.02-2.57.03-3.86.05.2-2.45,1.82-3,3.91-2.9.55.96.59,1.91-.05,2.85Z"/>
    <path class="cls-83" d="m822.14,538.83c8.18-1.45,14.6-11.81,20.42-10.62-.22,17.38.35,34.74,2.11,52.01.95,9.32-4.74,13.86-11.38,17.06-3.23,1.41-20.69,9.62-18.94,1.52,4.02-18.67,12.19-36.37,13.75-55.58.24-5.81-4.35-2.46-6.69-3.37.24-.34.48-.69.72-1.03Z"/>
    <path class="cls-2" d="m796.75,579.78c-.1-.29-.06-.56.13-.81,3.01-3.35,4.93.22,6.94,1.23,2.05-.78,1.35-4.56,3.35-3.67,3.3,2.12-2.43,10.01-3.4,12.96-1.04,2.47-3.57,2.38-5.28,2.46-3.2-.15-1.13-9.56-1.74-12.17Z"/>
    <path class="cls-2" d="m808.45,603.8c-1.46-.29-2.22-3.4-.18-3.06,1.39.1,1.68,2.9.18,3.06Z"/>
    <path class="cls-2" d="m801.62,565.15c-.69-2.31,2.16-2.87,2.34-4.75.93,2.42.57,4.22-2.34,4.75Z"/>
    <path class="cls-36" d="m729.39,366.08c-.41,1.27-.81,2.54-1.22,3.82-2.6-.4-5.77,1.84-7.72-1.65,3.12-.15,6.28-.11,8.94-2.17Z"/>
    <path class="cls-74" d="m561.52,108.32c-1.11-1.7-3.08-2.37-2.06-4.34,2.66-1.36,3.97,1.88,2.06,4.34Z"/>
    <path class="cls-74" d="m503.87,109.3c-1.61.33-3.23.67-4.84,1,.76-4.48,2.63-3.57,4.84-1Z"/>
    <path class="cls-74" d="m826.22,448.12c-.56-4.94,4.05-9,.45-13.91-1.16-1.72.43-3.41.55-5.15.08-1.23.86-2.16,2.21-2.16,4.75,2.04,2.16,9.82,1.26,13.73-.86,2.81.2,6.9-4.47,7.48Z"/>
    <path class="cls-162" d="m177.69,543.57c-16.89,3.35-9.91-18.03-10.77-27.1.55-3.45,1.01-6.72,5.9-6.49,13.68-.89,5.96,25.53,4.87,33.59Z"/>
    <path class="cls-97" d="m316.49,726.51c-.36,2.91-3.93,2.4-4.94,4.62-.65-1.58-1.29-3.15-1.94-4.73h0c2.31-.97,4.62-1.85,6.88.11Z"/>
    <path class="cls-97" d="m309.61,726.4c-1.63-.09-1.73,1.57-3.33,2.99,1.04-2.66-1.47-5.28.94-6.45,1.49-.72,1.41,2.34,2.38,3.47h0Z"/>
    <path class="cls-122" d="m184.44,597.65c-2.74-.99-1.63-3.24-1.66-5.11,2.58,1.04,1.74,3.2,1.66,5.11Z"/>
    <path class="cls-159" d="m254.92,371.98c.45,1.07.81,2.21-.72,2.63-2.2.6-2.39-1.42-3.18-2.63h3.9Z"/>
    <path class="cls-65" d="m276.52,794.55c.86,2.29,2.46,3.72.66,5.38-3.51.79-2.36-3.2-.66-5.38Z"/>
    <path class="cls-65" d="m277.2,804.51c0,1.95,0,3.9,0,5.86-2.81-1.95-2.78-3.91,0-5.86Z"/>
    <path class="cls-129" d="m314.57,816.1c-3.93.05-7.87.09-11.8.14,2.91-2.84,9.05-2.91,11.8-.14Z"/>
    <path class="cls-150" d="m305.74,742.27c2.74-1.12,2.62,4.43,5.05,2.48,2.77-7.58,9.3-14,18.24-13.55,3.19-1.94,9.55-.25,10.08,4.1,2.24,11.37.47,21.4-7.52,30.11-5.42,9.89-7.3,12.12-18.11,15.47-8.49-12.04-15.16-4.96-26.7-24.02-3.98-4.26-10.31-15.8-3.35-19.8,2.86-.82,5.94-2.57,8.37.92,3.7,5.43,8.91,14.26,13.94,4.27Z"/>
    <path class="cls-46" d="m305.74,742.27c2.15,4.02-1.96,4.67-3.72,5.97-2.01,1.49-5.34,1.17-6.26-1.45-1.12-3.2-3.8-5.09-5.15-8.05-1.79-3.94-4.66.11-7.13-.29-2.11-.34-1.41,1.95-1.49,3.6-.41,8.37,5.89,13.02,9.91,18.99,7.53,13.56,21.15,8.32,21.57,19.85-10.92,11.1-27.62-12.19-34.59-20.46-16.03-22.58,13.43-43.06,26.85-18.16Z"/>
    <path class="cls-102" d="m335,731.27c-1.99-.02-3.98-.05-5.97-.07,2.02-2.66,4.02-3.5,5.97.07Z"/>
    <path class="cls-7" d="m291.12,731.22c-1.68,0-3.37-.02-5.05-.03,1.7-2.97,3.38-2.86,5.05.03Z"/>
    <path class="cls-137" d="m593.72,700.02c6.93-4.98,12.21-11.82,18.93-16.96,7.8-7.14,11.37-17.14,18.33-24.8,6.35-8.63,6.18-18.62,9.55-28.12,4.35-11.49,1.05-24.46,2.03-36.53,3.77,7.41,1.56,15.85,3.89,23.43.22,9.1-3.91,17.12-6.73,25.39-2.29,12.26-4.56,16.13-11.7,25.7-7.42,13.18-19.68,27.34-34.29,31.88Z"/>
    <path class="cls-130" d="m667.58,412.84c-2.79,4.8-7.56,4.11-11.87,3.9-4.69.04-4.67-3.98-4.09-7.92q.01-9.13-8.83-9.77c-7.77-.56-10.7-4.27-9.07-11.5,2.24-7.92,11.33-6.5,17.61-7,1.71-5.65-.98-12,1.18-17.28,2.33-9.21,16.3-5.07,15.46,3.58-.17,4.17-1.4,9.48.62,12.24,2.14,2.91,7.84.58,11.95,1.58,5.52.48,9.67,6.82,6.98,11.88-4.05,13.8-23.44-.96-18.67,13.84.1,2.37,1.41,4.71-1.28,6.45Z"/>
    <path class="cls-13" d="m667.58,412.84c1.29-2.94-.89-15.09,1.61-15.08.87-.03.77.86,1.01,1.4-5.31,8.02,4.69,7.45,3.28,11.9-1.12,2.86-3.77,1.7-5.9,1.78Z"/>
    <path class="cls-13" d="m652.51,363.26c-.13,4.47-.21,8.95-.43,13.42-.06,1.29.95,2.87-.75,3.87-.28-4.7.59-9.83-.44-14.37-1.66-2.46-1.75-2.4,1.62-2.92Z"/>
    <path class="cls-13" d="m676.56,408.42c1.73.41,1.32,4.13-.54,3.75-1.76-.44-1.62-4.09.54-3.75Z"/>
    <path class="cls-13" d="m657.62,420.23c2-.27,3.41-1.48,4.83-.1.23,2.29-3.3,2.14-4.83.1Z"/>
    <path class="cls-154" d="m687.53,392.55c.01-2.01.02-4.02.04-6.03,3.39,2.03,2.39,4.04-.04,6.03Z"/>
    <path class="cls-13" d="m643.28,452.87c-1.6,1.43-2.78,1.43-4.27.09,1.33-1.18,2.52-1.1,4.27-.09Z"/>
    <path class="cls-173" d="m283.97,641.65c-9.5.11-17.32-15.79-18.35-.94-.72-2.86-5.25-2.37-5.21-5.9,8.93-4.75,15.47-9.51,9.61-20.94-2.42-4.72-5.9-29.19-10.35-28.13,3.95-6.22,12.46-3.63,17.53-8.3,3.37-2.65,3.88-6.99,1.31-10.28-11.82-15.37,41.88-9.89,48.68-8.69,0,.32,0,.63.01.95-13.86,6.9-45.48-8.58-38.62,20.73-4.7,6.91-18.09,6.87-12.45,18.51,3.86,6.83,18.24,35.54,26.38,33.51,11.18-3.61,8.13,9.03,26.24,8.6,2.85.37,6.81-1.73,8.5,1.67,1.09,2.33-.73,3.56-2.26,4.79-11.44-.78-22.79,1.08-34.21-.05-6.01-.62-10.73-5.12-16.81-5.54Z"/>
    <path class="cls-17" d="m344.88,709.89c-.09.57-.18,1.14-.27,1.71-1.58-.01-3.16-.02-4.74-.03.92-2.8,3.22-1.45,5-1.68Z"/>
    <path class="cls-49" d="m515.64,387.61c.05-3.88-1-7.92,3.3-10.77,1.8-2.66-1.33-10.3,4.47-10.75.42,8.26-3.51,14.95-7.76,21.52Z"/>
    <path class="cls-110" d="m327.18,558.47c-5.45-.52-54.85-3.29-49.11,6.23,9.39,6.88,1.07,17.68-8.45,17.2-1.57-1.67-.83-3.68-.8-5.56,1.77-13.8-13.44-8.48-21.72-8.18-.4-1.58-3.47-1.92-2.5-3.69,1.21-2.22,3.37-4.12,6.11-4.29,20.96-1.37,41.78-4.8,62.8-4.66,3.75,4.2,9.53.04,13.67,2.94Z"/>
    <path class="cls-164" d="m247.1,568.15c2.54-4.43,8.76-2.37,12.99-3.16,12.11-1.1,11.49,7.86,9.53,16.9-3.32,1.28-6.63,2.56-9.95,3.83-12.47,1.14-14.84-3.49-12.56-17.58Z"/>
    <path class="cls-52" d="m334.99,647.24c2.33-5.57,2.34-5.52-3.88-4.86-5.91-.13-17.04-.58-19.84-6.42-3.64-9.08-12.33,4.44-15.75-5.16-7.32-9.7-23.68-28.56-21.75-41.28.21-1.16.32-2.89,1.15-2.97,5.04-.48,8.11-5.45,13.21-5.6,5.62-1.98,11.08.93,16.68.24,7.12-1.36,12.79,3.18,19.49,4.39,18.92,4.8,20.58-28.29,25.24-17.54-3.43,16.29,12.69,20.45,15.01,7.85.18-2.09-.11-4.2.11-6.3.14-3.53-2.65-7.24.67-10.55,8.12-.29,16.21.77,24.36.46.34.35.63.86.41,1.25-2.79,4.09.02,6.78-2.27,10.54-6.19,9.08,13.98,18.05,16.7,6.24,1.29-2.08,2.89-10.67,5.92-5.91,1.14,1.96,1.16,4.09.32,6.11-2.61,6.31-2.28,12.97-1.95,19.5.79,12.15-6.16,9.73-8.34,17.02-5.28,6.31-11.73,11.09-19.25,14.38-1.06.47-2.19.54-2.36,1.96-2.11,1.1-3.37,3.46-5.87,3.99,0,0-.02-.03-.02-.03-12.69,4.08-24.17,12.6-38,12.7Z"/>
    <path class="cls-18" d="m387.8,566.46c-.1-.63.02-1.43-.33-1.84-.83-.97-1.52,3.05-2.4.24-.81-3.18,4.32-2.69,4.62-5.38,11.83.42,23.67-.75,35.52.66,6.62.54,5.54-9.47,10.27-11.49.55,5.87-4.25,9.33-6.42,13.97-3.97,4.67.31,9.36-5.4,12.45-2.48,15.59-12.13,28.83-23.17,39.17-1.42-3.07-.75-4.89,2.73-6.03,2.9-.95,4.9-7.12,3.64-10.13-.48-1.16-.68-2.17.12-3.15.64-.78,1.44-1.64.93-2.56-3.19-5.75.47-10.65,1.92-15.79.55-1.94.05-3.62-.84-5.05-.5-.81-.61.55-.93.89-1.31.49-2.39-.12-2.76-1.2-3.15-8.08-11.84-1.63-17.49-4.76Z"/>
    <path class="cls-79" d="m423.65,575.07c1.68-11.79,13.06-8.66,21.66-8.77.3,1.71,1.64,1.69,2.95,1.85,9.19.7,8.23,8.71,3.89,14.73,0,0,0,0,0,0-1.99,1.92-4.89.15-6.97,1.71-8.6-.78-21.98,4.35-21.53-9.51Z"/>
    <path class="cls-132" d="m445.19,584.58c1.71-3.08,4.56-1.49,6.97-1.71-1.67,3.21-4.56,1.49-6.97,1.71Z"/>
    <path class="cls-70" d="m373.01,634.56c1.64-1.8,2.95-4.08,5.87-3.99-1.27,2.34-2.82,4.26-5.87,3.99Z"/>
    <path class="cls-52" d="m304.57,647.41c8.83-.09,18.46-4.19,26.68,0-8.89,1.41-17.78,1.35-26.68,0Z"/>
    <path class="cls-52" d="m283.97,641.65c6.57-2.73,11.13,3.67,16.81,5.54-6.1,1.22-10.84-3.56-16.62-3.74-.06-.6-.12-1.2-.19-1.79Z"/>
    <path class="cls-73" d="m586.06,276.08c-3.37-3.95-9.36-2.78-13.41-7.14,5.96.9,20.34-7.66,21.17,1.66.42,5.54-2.67,6.31-7.76,5.48Z"/>
    <path class="cls-155" d="m592.61,490.22c2.63,4.48,2.43,14.16-4.28,14.28-1.93.08-2.82-1.2-3.43-2.85-2.91-5.2.72-15.95,7.71-11.43Z"/>
    <path class="cls-112" d="m592.61,490.22c-1.97-.09-3.93-.17-5.9-.26,2.12-3.42,4.07-2.97,5.9.26Z"/>
    <path class="cls-50" d="m292.05,581.87c-10.5,1.49-7.61-25.57,7.47-22.41,16.7,0,33.41-.06,50.11-.02,5.2-1.5,10.4-1.61,15.6.05-.52,3.62.94,7.06.98,10.63-4.26-1.9-8.33-4.66-13.4-2.49-1.27.54-2.65,1.28-4.16.59-.44-1.56-1.45-2.22-1.77-.21-4.03,17.24-18.28,26.05-33.67,14.72-.47-1.79.8-2.95,1.52-4.33,6.51-15.3-15.07-12.89-23.12-8.2-7.62,4.56,2.72,8.43.43,11.68Z"/>
    <path class="cls-110" d="m365.23,559.48c-5.2-.02-10.4-.03-15.6-.05,3.96-4.46,20.45-1.12,26.36-.01-3.59.02-7.17.04-10.76.06Z"/>
    <path class="cls-14" d="m390.7,475.52c.45.16,1.1.19,1.31.51.98,1.46,4.45,1.47,3.2,3.99-1.32,2.66-4.31,1.21-6.53,1.2-1.95,0-1.04-1.49-.61-2.45.58-1.29,2.59-1.47,2.61-3.24,0,0,.02,0,.02,0Z"/>
    <path class="cls-93" d="m679.63,656.37c1.13,11.94-7.07,7.61-5.9,1.79.86-2.86,1.71-5.72.97-8.74-.28-1.13-.73-2.41.94-2.69,4.08-.09,4.15,7.07,4,9.64Z"/>
    <path class="cls-37" d="m775.34,676.6c.32,4.65-2.37,7.46-5.96,9.71.56-4.11,4.33-6.26,5.96-9.71Z"/>
    <path class="cls-93" d="m679.64,548.55c1.17,2.34,1.35,3.75-.19,5.28-1.13-1.63-.85-3.03.19-5.28Z"/>
    <path class="cls-85" d="m412.91,327.94c-26.41,2.63-39.26-5.29-55.41-25.43-1.2-4.93-6.08-8.84-4.18-14.61,2.26-6.88,5.61-13.37,13.92-12.72,4.85.38,7.62,2.48,8.93,6.95,3.96,5.44-2.09,12.92,3.82,17.23,15.82,13.99,38,10.23,54.58.26,6.35-2.66,3-12.41,9.8-14.19,3.23-.89,6.52-.69,9.36,1.89,20.21,18.07-26.64,38.05-40.82,40.63Z"/>
    <path class="cls-68" d="m445.32,237.26c7.89-.72,15.56-1.03,23.15,2.6,8.56,3.62,29.84,29.98,12.67,33.24-13.54,3.2-9.19-9.93-20.9-14.99-7.04-3.75-17.37,1.45-20.07,7.48-3.35,7.47-6.27,8.54-13.46,7.24-5.07-.92-3.56-4.42-4.03-7.3,1.44-10.29,7.87-17.56,14.97-24.31,2.06-1.96,6.04-.77,7.67-3.96Z"/>
    <path class="cls-172" d="m434.57,299.62c-15.65,15.16-43.62,13.78-58.65-1.36-1.18-1.02-1.02-2.35-.68-3.59,1.13-4.13.72-8.35.93-12.53,1.07.11,1.65.81,2.21,1.65,4.53,6.43,8.28-5.39,14.22-3.58-.12,1.82-1.74,2.13-2.9,2.94-15.24,13.68,1.06,9.53,1.21,18.37-.04,1.73,1.86,2.03,3.24,2.44,23.38,8.23,35.13-9.32,40.42-4.33Z"/>
    <path class="cls-126" d="m531.35,200.23c-4.62,3.8-9.45,7.19-15.65,7.83,2.81-3.19,7.42-3.77,10.19-7.18,1.24-1.53,3.59-.7,5.46-.65Z"/>
    <path class="cls-51" d="m487.48,376.04c-.8-3.96.27-8.31-3.23-11.71-1.41-1.37-1.57-4,1.64-4.01,2.24,0,2.06-2.31,3.51-2.91-.64,6.21-1.28,12.42-1.92,18.62Z"/>
    <path class="cls-11" d="m334.99,744.43c.34,7.96-12.18,15.88-18.48,9.87-6.68-15.95,17.05-26.72,18.48-9.87Z"/>
    <path class="cls-133" d="m387.8,566.46c5.73-.67,17.94-5.02,18.72,3.78.05,1.01.37,1.91,1.52,2.18-1.2,6.91-6.51,15.94-14.53,11.97-5.74-1.85-11.59-7.65-7.25-13.92.79-1.14,1.03-2.66,1.52-4.01Z"/>
    <path class="cls-98" d="m348.66,568.21c5.96-4.68,14.04-3.8,17.56,1.9,4.26,22.46-25.67,17.65-17.56-1.9Z"/>
    <path class="cls-29" d="m313.74,566.14c5.65,2.59,5.39,13.42-.53,16.58-25.75,3.17-23.87-20.45.53-16.58Z"/>
    <path class="cls-28" d="m313.74,566.14c-5.94.83-16.61.58-17.71,8.4-.17,5.1,5.35,6.19,8.69,8.22-4.29.61-8.41-1.07-12.67-.89-.26-1.77-1.85-1.99-3.05-2.77-10.09-13.06,16.76-14.92,24.74-12.96Z"/>
    <path class="cls-25" d="m337.84,572.81c1.13,11.48-14.14,11.45-14.71,2.31-1.35-9.34,15.73-13.28,14.71-2.31Z"/>
  </g>
</svg>